<?xml version="1.0" encoding="utf-8"?>
<!-- Generator: Adobe Illustrator 22.0.1, SVG Export Plug-In . SVG Version: 6.00 Build 0)  -->
<svg version="1.1"
	 id="Laag_1" xmlns:cc="http://creativecommons.org/ns#" xmlns:dc="http://purl.org/dc/elements/1.1/" xmlns:rdf="http://www.w3.org/1999/02/22-rdf-syntax-ns#" xmlns:svg="http://www.w3.org/2000/svg"
	 xmlns="http://www.w3.org/2000/svg" xmlns:xlink="http://www.w3.org/1999/xlink" x="0px" y="0px" viewBox="0 0 1070.8 296.8"
	 style="enable-background:new 0 0 1070.8 296.8;" xml:space="preserve">
<style type="text/css">
	.st0{fill:#009FE3;}
	.st1{fill:#3D3A39;}
	.st2{fill:#FFFFFF;}
</style>
<g id="g3" transform="translate(-94.028,-150.664)">
	<ellipse id="ellipse5" class="st0" cx="712.3" cy="211.8" rx="20.4" ry="18.2"/>
	<g id="g7">
		<path id="path9" class="st1" d="M622.9,213.5V371h38V204.7h-29.2C626.9,204.7,622.9,208.7,622.9,213.5L622.9,213.5z"/>
		<path id="path11" class="st1" d="M693.3,257.8V371h38V249h-29.2C697.3,249,693.3,252.9,693.3,257.8z"/>
		<path id="path13" class="st1" d="M834.3,246.1c-17.3,0-29.5,9-34.9,13.9v-11h-29.2c-4.9,0-8.8,4-8.8,8.8v162h38v-53.7
			c5.8,4.4,13.6,7.5,24.1,7.5c35.5,0,62.7-30.6,62.7-69.2C886.3,265.7,858.2,246.1,834.3,246.1z M821.9,360.5
			c-7.8,0-16.1-7.4-22.4-14.8v-65.4c5.9-5.9,16-14.3,24.7-14.3c13.1,0,25.3,17.9,25.3,44S837.5,360.5,821.9,360.5z"/>
		<path id="path15" class="st1" d="M958.6,246.1c-33.5,0-44.5,7.1-44.5,7.1l4,8.5c0,0,12.5-4.5,32.9-4.5c22.7,0,25,12.2,25,27.2v7
			c-4.9-1.4-14.2-3.6-25.8-3.6c-17.3,0-48,6.8-48,42.3s27.2,43.4,45.1,43.4c10.5,0,21.4-5.4,28.7-9.9v7.4h38v-86.5
			C1014,258.9,992.1,246.1,958.6,246.1L958.6,246.1z M956.4,357.4c-15.9,0-25.8-9.4-25.8-26.7c0-17.3,17.6-28.1,31.5-28.1
			c7,0,11.3,2.2,13.9,4.4v42.3C971.5,353.2,964.8,357.4,956.4,357.4z"/>
		<path id="path17" class="st1" d="M1164.9,246.1h-25.5l-34.2,78l-0.9-1.8l-39-76.1h-39l59.5,116.1l1.4,2.8l-6.2,14.2
			c-9.6,19.1-37.1,17.8-37.1,17.8v16c0,0,11.8,1,20.4,0c8.2-0.9,26.4-6.4,35.2-25.2h0l18.2-39.4v0L1164.9,246.1L1164.9,246.1z"/>
		<path id="path19" class="st1" d="M529,204.7h-16.1L499.7,232l-66.9,139h25.7l13.2-27.5h79.6l12.8,27.5h41.9l-72.5-156.2L529,204.7
			L529,204.7z M546,331.8h-68.7l34.9-72.6L546,331.8L546,331.8z"/>
	</g>
	<path id="path21" class="st0" d="M390.9,197.2v204.2c-0.3,25.5-21,46.1-46.5,46.1H140.6c-25.7,0-46.5-20.8-46.5-46.5V197.2
		c0-25.7,20.8-46.5,46.5-46.5h203.8C370,150.7,390.9,171.5,390.9,197.2L390.9,197.2z"/>
	<path id="path23" class="st2" d="M292.4,317.5c15.3-29.3,25.4-60.2,25.4-60.2h-58.9v-20.7h72.6v-12.6h-72.6v-33.4h-33.8v33.4h-72.6
		v12.6h72.6v20.7h-61v11.1H282c0,0-6.5,20.1-17.5,40c-31.6-9.8-60.8-16.6-84.2-16.6c-56.2,0-68.6,28.2-66,54
		c2.1,20.6,17.5,50.7,64.3,50.7c42.8,0,77.3-24.5,98.5-53.7c40.5,18.7,83.3,41.6,113.8,58.6v-49
		C358.7,341.4,324.8,328.5,292.4,317.5z M171.8,379.1c-39.6,0-45.7-22.3-46.4-35.6c-0.6-11.6,7.2-33.5,51.9-33.5
		c16.6,0,43,8.5,72.6,20.8C233.1,352.8,206.3,379.1,171.8,379.1L171.8,379.1z"/>
</g>
</svg>
