<svg xmlns="http://www.w3.org/2000/svg" viewBox="0 0 1070.8 296.8"><style type="text/css">
	.st0{fill:#FFFFFF;}
</style><path class="st0" d="M618.3 42.9c11.3 0 20.4 8.1 20.4 18.2s-9.1 18.2-20.4 18.2 -20.4-8.1-20.4-18.2S607 42.9 618.3 42.9zM528.9 62.8v157.5h38V54h-29.2C532.9 54 528.9 58 528.9 62.8L528.9 62.8zM599.3 107.1v113.2h38v-122h-29.2C603.3 98.3 599.3 102.2 599.3 107.1zM740.3 95.4c-17.3 0-29.5 9-34.9 13.9v-11h-29.2c-4.9 0-8.8 4-8.8 8.8v162h38v-53.7c5.8 4.4 13.6 7.5 24.1 7.5 35.5 0 62.7-30.6 62.7-69.2C792.3 115 764.2 95.4 740.3 95.4zM727.9 209.8c-7.8 0-16.1-7.4-22.4-14.8v-65.4c5.9-5.9 16-14.3 24.7-14.3 13.1 0 25.3 17.9 25.3 44S743.5 209.8 727.9 209.8zM864.6 95.4c-33.5 0-44.5 7.1-44.5 7.1l4 8.5c0 0 12.5-4.5 32.9-4.5 22.7 0 25 12.2 25 27.2v7c-4.9-1.4-14.2-3.6-25.8-3.6 -17.3 0-48 6.8-48 42.3s27.2 43.4 45.1 43.4c10.5 0 21.4-5.4 28.7-9.9v7.4h38v-86.5C920 108.2 898.1 95.4 864.6 95.4L864.6 95.4zM862.4 206.7c-15.9 0-25.8-9.4-25.8-26.7 0-17.3 17.6-28.1 31.5-28.1 7 0 11.3 2.2 13.9 4.4v42.3C877.5 202.5 870.8 206.7 862.4 206.7zM1070.9 95.4h-25.5l-34.2 78 -0.9-1.8 -39-76.1h-39l59.5 116.1 1.4 2.8 -6.2 14.2c-9.6 19.1-37.1 17.8-37.1 17.8v16c0 0 11.8 1 20.4 0 8.2-0.9 26.4-6.4 35.2-25.2l0 0 18.2-39.4 0 0L1070.9 95.4 1070.9 95.4zM435 54h-16.1l-13.2 27.3 -66.9 139h25.7l13.2-27.5h79.6l12.8 27.5H512L439.5 64.1 435 54 435 54zM452 181.1h-68.7l34.9-72.6L452 181.1 452 181.1zM296.9 46.5v204.2c-0.3 25.5-21 46.1-46.5 46.1H46.6c-25.7 0-46.5-20.8-46.5-46.5V46.5C0.1 20.8 20.9 0 46.6 0h203.8C276 0 296.9 20.8 296.9 46.5L296.9 46.5zM198.4 166.8c15.3-29.3 25.4-60.2 25.4-60.2h-58.9V85.9h72.6V73.3h-72.6V39.9h-33.8v33.4H58.5v12.6h72.6v20.7h-61v11.1H188c0 0-6.5 20.1-17.5 40 -31.6-9.8-60.8-16.6-84.2-16.6 -56.2 0-68.6 28.2-66 54 2.1 20.6 17.5 50.7 64.3 50.7 42.8 0 77.3-24.5 98.5-53.7 40.5 18.7 83.3 41.6 113.8 58.6v-49C264.7 190.7 230.8 177.8 198.4 166.8zM77.8 228.4c-39.6 0-45.7-22.3-46.4-35.6 -0.6-11.6 7.2-33.5 51.9-33.5 16.6 0 43 8.5 72.6 20.8C139.1 202.1 112.3 228.4 77.8 228.4L77.8 228.4z"/></svg>
