<?xml version="1.0" encoding="utf-8"?>
<!-- Generator: Adobe Illustrator 22.0.1, SVG Export Plug-In . SVG Version: 6.00 Build 0)  -->
<svg version="1.1" id="Layer_1" xmlns="http://www.w3.org/2000/svg" xmlns:xlink="http://www.w3.org/1999/xlink" x="0px" y="0px"
	 viewBox="0 0 166 32" style="enable-background:new 0 0 166 32;" xml:space="preserve">
<style type="text/css">
	.st0{enable-background:new    ;}
	.st1{fill:#564F70;}
	.st2{fill:#6E2D91;}
	.st3{fill:#FFFFFF;}
	.st4{fill:#EB1E23;}
</style>
<g id="Icon_x2F_Payment_x2F_CreditCard-Color" transform="translate(-4.000000, -7.000000)">
	<g id="Group-2" transform="translate(4.000000, 7.000000)">
		<g class="st0">
			<path class="st1" d="M69.5,17.9c-0.2,1.7-0.8,3-1.8,3.9c-1.1,0.9-2.5,1.4-4.3,1.4c-1.2,0-2.3-0.3-3.3-0.9
				c-0.9-0.6-1.7-1.4-2.2-2.5s-0.8-2.4-0.8-3.8v-1.5c0-1.5,0.3-2.8,0.8-3.9c0.5-1.1,1.3-2,2.3-2.6s2.1-0.9,3.4-0.9
				c1.7,0,3.1,0.5,4.2,1.4c1.1,0.9,1.7,2.3,1.8,4h-2.7c-0.1-1.1-0.5-1.9-1-2.4c-0.5-0.5-1.3-0.7-2.3-0.7c-1.2,0-2.1,0.4-2.7,1.3
				c-0.6,0.9-1,2.1-1,3.8v1.4c0,1.7,0.3,3,0.9,3.9c0.6,0.9,1.5,1.3,2.7,1.3c1.1,0,1.9-0.2,2.4-0.7s0.9-1.3,1-2.4H69.5z"/>
			<path class="st1" d="M77.8,13.8c-0.3-0.1-0.7-0.1-1.1-0.1c-1.2,0-2,0.5-2.4,1.4V23h-2.6V11.4h2.5l0.1,1.3c0.6-1,1.5-1.5,2.6-1.5
				c0.4,0,0.7,0,0.9,0.2L77.8,13.8z"/>
			<path class="st1" d="M84.3,23.2c-1.7,0-3-0.5-4-1.6c-1-1-1.5-2.4-1.5-4.2v-0.3c0-1.2,0.2-2.2,0.7-3.1c0.4-0.9,1.1-1.6,1.9-2.1
				c0.8-0.5,1.7-0.8,2.7-0.8c1.6,0,2.8,0.5,3.7,1.5c0.9,1,1.3,2.4,1.3,4.3V18h-7.6c0.1,1,0.4,1.7,1,2.3c0.6,0.6,1.3,0.8,2.1,0.8
				c1.2,0,2.2-0.5,2.9-1.5l1.4,1.3c-0.5,0.7-1.1,1.2-1.9,1.6C86.2,23,85.3,23.2,84.3,23.2z M84,13.3c-0.7,0-1.3,0.3-1.7,0.8
				s-0.7,1.2-0.8,2.1h5v-0.2c-0.1-0.9-0.3-1.5-0.7-2C85.3,13.5,84.8,13.3,84,13.3z"/>
			<path class="st1" d="M90.5,17.1c0-1.8,0.4-3.2,1.2-4.3c0.8-1.1,1.9-1.6,3.3-1.6c1.2,0,2.2,0.4,3,1.3v-6h2.6V23h-2.4l-0.1-1.2
				c-0.8,0.9-1.8,1.4-3.1,1.4c-1.4,0-2.5-0.5-3.3-1.6S90.5,19,90.5,17.1z M93.2,17.3c0,1.2,0.2,2.1,0.7,2.8c0.5,0.7,1.1,1,1.9,1
				c1.1,0,1.8-0.5,2.3-1.4v-5c-0.5-0.9-1.3-1.4-2.3-1.4c-0.8,0-1.5,0.3-2,1C93.4,15,93.2,16,93.2,17.3z"/>
			<path class="st1" d="M103.5,8.3c0-0.4,0.1-0.7,0.4-1c0.3-0.3,0.6-0.4,1.1-0.4s0.8,0.1,1.1,0.4c0.3,0.3,0.4,0.6,0.4,1
				c0,0.4-0.1,0.7-0.4,1c-0.3,0.3-0.6,0.4-1.1,0.4s-0.8-0.1-1.1-0.4C103.6,9.1,103.5,8.7,103.5,8.3z M106.2,23h-2.6V11.4h2.6V23z"/>
			<path class="st1" d="M112.3,8.6v2.8h2.1v1.9h-2.1v6.5c0,0.4,0.1,0.8,0.3,1c0.2,0.2,0.5,0.3,0.9,0.3c0.3,0,0.6,0,0.9-0.1v2
				c-0.6,0.2-1.2,0.2-1.7,0.2c-2,0-3-1.1-3-3.3v-6.6h-1.9v-1.9h1.9V8.6H112.3z"/>
			<path class="st1" d="M134.1,17.9c-0.2,1.7-0.8,3-1.8,3.9c-1.1,0.9-2.5,1.4-4.3,1.4c-1.2,0-2.3-0.3-3.3-0.9
				c-0.9-0.6-1.7-1.4-2.2-2.5s-0.8-2.4-0.8-3.8v-1.5c0-1.5,0.3-2.8,0.8-3.9c0.5-1.1,1.3-2,2.2-2.6c1-0.6,2.1-0.9,3.4-0.9
				c1.7,0,3.1,0.5,4.2,1.4c1.1,0.9,1.7,2.3,1.8,4h-2.7c-0.1-1.1-0.5-1.9-1-2.4c-0.5-0.5-1.3-0.7-2.3-0.7c-1.2,0-2.1,0.4-2.7,1.3
				c-0.6,0.9-1,2.1-1,3.8v1.4c0,1.7,0.3,3,0.9,3.9s1.5,1.3,2.7,1.3c1.1,0,1.9-0.2,2.4-0.7s0.9-1.3,1-2.4H134.1z"/>
			<path class="st1" d="M143.2,23c-0.1-0.2-0.2-0.6-0.3-1.1c-0.8,0.9-1.8,1.3-3.1,1.3c-1.2,0-2.1-0.3-2.9-1s-1.1-1.5-1.1-2.5
				c0-1.2,0.5-2.2,1.4-2.9c0.9-0.7,2.2-1,3.9-1h1.6v-0.8c0-0.6-0.2-1.1-0.5-1.4c-0.3-0.4-0.8-0.5-1.5-0.5c-0.6,0-1.1,0.1-1.5,0.4
				c-0.4,0.3-0.6,0.7-0.6,1.1h-2.6c0-0.6,0.2-1.2,0.6-1.8c0.4-0.6,1-1,1.7-1.3c0.7-0.3,1.5-0.5,2.4-0.5c1.4,0,2.4,0.3,3.3,1
				c0.8,0.7,1.2,1.6,1.2,2.9v5.2c0,1,0.1,1.9,0.4,2.5V23H143.2z M140.3,21.1c0.5,0,1-0.1,1.5-0.4s0.8-0.6,1-1v-2.2h-1.4
				c-1,0-1.7,0.2-2.2,0.5s-0.7,0.8-0.7,1.4c0,0.5,0.2,0.9,0.5,1.2C139.3,21,139.7,21.1,140.3,21.1z"/>
			<path class="st1" d="M154.2,13.8c-0.3-0.1-0.7-0.1-1.1-0.1c-1.2,0-2,0.5-2.4,1.4V23h-2.6V11.4h2.5l0.1,1.3c0.6-1,1.5-1.5,2.6-1.5
				c0.4,0,0.7,0,0.9,0.2L154.2,13.8z"/>
			<path class="st1" d="M155.2,17.1c0-1.8,0.4-3.2,1.2-4.3c0.8-1.1,1.9-1.6,3.3-1.6c1.2,0,2.2,0.4,3,1.3v-6h2.6V23H163l-0.1-1.2
				c-0.8,0.9-1.8,1.4-3.1,1.4c-1.4,0-2.5-0.5-3.3-1.6S155.2,19,155.2,17.1z M157.8,17.3c0,1.2,0.2,2.1,0.7,2.8c0.5,0.7,1.1,1,1.9,1
				c1.1,0,1.8-0.5,2.3-1.4v-5c-0.5-0.9-1.3-1.4-2.3-1.4c-0.8,0-1.5,0.3-2,1C158,15,157.8,16,157.8,17.3z"/>
		</g>
		<g id="Group">
			<path id="Shape" class="st2" d="M44.5,0H3.5C1.5,0,0,1.5,0,3.5v0.8v10.8v13.5c0,2,1.5,3.5,3.5,3.5h40.9c2,0,3.5-1.5,3.5-3.5V15.1
				V4.3V3.4C48,1.5,46.4,0,44.5,0z"/>
			<polygon id="Path" class="st3" points="48,7 48,12.3 0,12.3 0,7 			"/>
			<path id="Path_1_" class="st4" d="M40.2,28.3c-0.7,0-1.4-0.2-2-0.6c-0.6,0.3-1.3,0.6-2,0.6c-2.2,0-3.9-1.7-3.9-3.9
				s1.8-3.9,3.9-3.9c0.7,0,1.4,0.2,2,0.6c0.6-0.3,1.3-0.6,2-0.6c2.2,0,3.9,1.7,3.9,3.9C44.3,26.5,42.4,28.3,40.2,28.3z"/>
			<ellipse id="Oval" class="st3" cx="40.3" cy="24.4" rx="4" ry="3.9"/>
		</g>
	</g>
</g>
</svg>
