<svg xmlns="http://www.w3.org/2000/svg" viewBox="0 0 538.6 117.6"><style type="text/css">
	.st0{fill:#FFFFFF;}
</style><path class="st0" d="M100.8 74.5h8.2l-0.5 1.8c-0.1 0.5-0.4 0.8-1 0.7h-7.4L100.8 74.5zM83.3 54.7c1.3 0 2.3-0.4 3.1-1.3 0.8-0.9 1.4-2.2 1.7-3.9 0.1-0.3 0.1-0.6 0.1-0.8 0-0.3 0-0.5 0-0.8 0-1-0.3-1.8-0.8-2.4 -0.5-0.6-1.2-0.8-2.2-0.8 -1.3 0-2.3 0.4-3.1 1.3 -0.8 0.9-1.4 2.2-1.7 4 0 0.3-0.1 0.5-0.1 0.8s0 0.5 0 0.8c0 1 0.3 1.8 0.8 2.3C81.6 54.5 82.3 54.7 83.3 54.7zM122.8 87.6h4.1l1.1-3.7h-4.1L122.8 87.6zM128.8 42.6c0.8-0.6 1.3-1.6 1.6-2.9 0-0.2 0.1-0.5 0.1-0.7s0-0.4 0-0.6c0-0.9-0.3-1.6-1-2.1 -0.7-0.4-1.7-0.6-3.2-0.6h-4.5l-1.6 7.9h5.3C126.9 43.6 128 43.3 128.8 42.6zM140.2 54.9c1.5 0.5 3.4-1.1 4.2-3.6s0.3-4.9-1.1-5.3c-1.5-0.5-3.4 1.1-4.2 3.6C138.2 52.1 138.7 54.4 140.2 54.9zM101.3 72.5c0 0 1.4-1 3.6-1 2.3 0 4.8 0 4.8 0l0.7-2.4h-8.1L101.3 72.5zM124.4 81.8c0 0 2.7-1.3 4.5-1.4 0.5-2 1.1-3.7 1.1-3.7h-4.2L124.4 81.8zM184.6 12l-20.5 93.7c-1.4 6-7 10.9-12.8 11.2h-45.6c-5.9-0.1-9.6-5.1-8.2-11.2l1.5-7.3h-3.6l-1.5 7.3c-1.4 6.1 2.3 11.1 8.2 11.2H53.7c-5.9-0.1-9.6-5.1-8.2-11.2l4.7-21.8H46l-4.7 21.8c-1.4 6.1 2.3 11.1 8.2 11.2h-40c-4.7-0.1-8-3.3-8.5-7.8v-1.7c0-0.5 0.1-1.1 0.2-1.7L21.7 12c1.5-6.3 9.1-11.3 15.1-11.3h39.8c-5.9 0.1-13.5 5.1-14.8 11.2l-3.9 17.6h4.2L66 11.9c1.4-6.1 8.9-11.1 14.8-11.2 0.1 0 0.2 0 0.2 0h30.8H129c-6 0.2-13.4 5.1-14.7 11.2l-3.9 17.6h3.6l3.9-17.6c1.4-6.1 8.8-11 14.7-11.2h0.1 43.4C182.2 0.7 186 5.8 184.6 12zM142.5 56.9l0.8 0.9 5.2 0.1 3.4-15.5 -4.6 0.4 -1.9 1.3c-2-1.6-3.8-2.5-7.3-0.9C133.3 45.4 129.3 62.5 142.5 56.9zM146.5 68c-0.6 0-0.9-0.2-0.9-0.7l-0.2-1.9h-5.2l0.2 4.1c0.1 1.2 0.8 1.8 2.3 1.7h3.8l0.9-3.2H146.5zM111.6 57.9h5.5l2-9.6h6.4c2.6 0 4.8-0.8 6.7-2.3s3.1-3.6 3.6-6.1c0.1-0.5 0.1-1 0.2-1.4 0.1-0.4 0.1-0.8 0.1-1.2v-0.1c0-1.9-0.6-3.4-1.8-4.4s-2.9-1.5-5.2-1.5h-11.8L111.6 57.9zM93.8 57.9H98l1.8-9.4c0.3-1.2 0.8-2.1 1.5-2.8s1.6-1 2.7-1c0.9 0 1.5 0.3 1.8 0.8 0.4 0.5 0.4 1.3 0.2 2.3L104 58h4.2l2.2-11.2c0.4-1.8 0.2-3.2-0.6-4.2 -0.7-1-2-1.5-3.7-1.5 -1.9 0-3.5 0.7-4.8 2.1l-0.6 0.7 0.5-2.4h-4.1L93.8 57.9zM89.2 67.5l1.1-2h-5.5l-2 3.1c-0.2 0.5-0.7 0.7-1.4 0.7h-0.8l-0.8 3.3h4.1c1.3 0.1 2.4-0.5 3.3-1.9H95l0.8-3.2H89.2zM48.8 30.2h-5.7l-3.8 18.2c-0.3 1.6-1.1 2.8-2.2 3.7 -1.2 0.9-2.6 1.3-4.4 1.3 -1.5 0-2.6-0.4-3.3-1.3 -0.5-0.6-0.7-1.4-0.7-2.3 0-0.4 0.1-0.9 0.2-1.4l3.8-18.2h-5.8l-3.8 18.4c-0.2 0.9-0.3 1.7-0.3 2.5 0 1.9 0.5 3.5 1.6 4.7 1.5 1.7 4 2.6 7.4 2.6 3.6 0 6.5-0.8 8.8-2.5s3.8-4.1 4.4-7.2L48.8 30.2zM63 42.6c-0.7-1-2-1.5-3.7-1.5 -1.9 0-3.5 0.7-4.8 2.1l-0.6 0.7 0.5-2.4h-4.1L47 58h4.1l1.9-9.5c0.3-1.2 0.8-2.1 1.5-2.8s1.6-1 2.7-1c0.9 0 1.5 0.3 1.8 0.8 0.4 0.5 0.4 1.3 0.2 2.3l-2 10.2h4.2l2.2-11.2C64 45 63.8 43.6 63 42.6zM73.8 41.5h-4.5l-3.5 16.4h4.5L73.8 41.5zM75.3 35.5h-4.6l-0.9 4h4.6L75.3 35.5zM76 52.1c0 1.9 0.6 3.4 1.8 4.6 1.2 1.1 2.8 1.6 4.9 1.5 2.4 0 4.5-0.8 6.3-2.3 1.7-1.6 2.9-3.7 3.4-6.3 0.1-0.4 0.1-0.8 0.2-1.2s0.1-0.8 0.1-1.1c0-1.9-0.6-3.5-1.8-4.6 -1.2-1.1-2.8-1.7-4.8-1.7 -2.5 0-4.6 0.8-6.4 2.4 -1.7 1.6-2.9 3.7-3.4 6.4 -0.1 0.4-0.2 0.8-0.2 1.2C76 51.4 76 51.8 76 52.1zM90.2 89.7h-4.6c-1.2 0.1-1.6-0.3-1.3-1.1l1.3-4.8h5.6l0.9-3.4h-5.6l0.9-3.2h5.8l0.9-3.4H79.7l-0.8 3.4h3.4l-0.9 3.2h-3.6l-0.9 3.4h3.6l-1.7 6.1c-0.5 1.9 0 2.9 1.7 2.9h8.8L90.2 89.7zM113.1 81.2h-3.9l-0.4 1.3c0 0.4-0.3 0.6-0.9 0.6h-1.3l0.1-2H102l-0.3 9.3c-0.1 1.6 0.7 2.4 2.3 2.3h5.7l0.8-2.8h-2.4c-1 0-1.5-0.2-1.5-0.8v-3.5h2.5c1.9-0.1 3.1-0.9 3.5-2.5L113.1 81.2zM113.3 78.1l3.5-12.6h-9.1c-2.5 0-5.2 2-5.2 2l0.2-2 -4.9 0.1L91 90.9c-0.3 1.2 0.5 1.8 2.5 1.8h5.2l0.7-2.8h-2c-0.5 0-0.7-0.2-0.6-0.7l2.4-8.9h10.4C111.8 80.3 113 79.5 113.3 78.1zM132.7 91.2l1-3.6h-1.1l5.1-18.1h1.1l1.1-3.8c0 0-4.8 0-6.8 0s-4.8 1.4-4.8 1.4l0.2-1.4H123l-1.1 3.8h1.1l-5.1 18.1h-1.1l-1 3.6h10.5l-0.4 1.6h5.3l0.4-1.6H132.7zM155.5 72.4h-16.8l-0.8 3.6h5.8l-0.9 3.2H137l-1 3.5h5.3l-4.1 6c-0.5 0.5-1 0.8-1.6 0.8h-1.5l-1 3.4h4.9c1.3 0 2.3-0.5 2.9-1.6l2.6-4 0.8 3.7c0.1 1.2 0.9 1.8 2.6 1.7h3.2l0.9-3.4h-0.9c-0.7 0-1-0.2-1.1-0.6l-0.7-4.1h-2.9l1.3-2h5.9l1-3.5h-5.3l0.9-3.2h5.3L155.5 72.4zM170.4 41.5h-4.8l-4.8 11.1 -0.3-11.1H158h-3l1.4 17.8c-1.2 2.4-3.3 7.8-7.2 9l-0.4 2.8c4.7 0.2 6.6-2.1 7.6-3.1s2.7-3.2 4.4-6.9L170.4 41.5zM126.5 74.4c0 0 2.4-0.9 4.5-1.2 0.5-1.7 1.1-3.7 1.1-3.7h-4.2L126.5 74.4zM211.5 55.2c-1.7 7.5 0.6 13.2 6.5 16.6 14.1 8.1 33.4 0.8 37.9-14.7 2.8-9.8 4.7-19.8 7-29.8 0.6-2.8 1.2-5.5 1.9-8.6 -3.5 0-6.4 0.2-9.2-0.1 -2.5-0.2-3.5 0.6-4 3.1 -2.3 10.6-4.6 21.1-7.3 31.6 -0.8 3.3-2.5 6.6-4.6 9.2 -2.8 3.4-8.8 3.7-12.8 1.5 -3-1.7-3.7-4.4-2.5-9.9 1.9-8.3 3.8-16.6 5.7-24.9 0.8-3.4 1.5-6.8 2.3-10.5 -4 0-7.6-0.1-11.2 0.1 -0.6 0-1.5 1.2-1.6 2C216.9 32.2 214.2 43.7 211.5 55.2zM511.4 80.4c8.1-14.5 16.4-28.9 24.6-43.3 0.6-1.1 1.6-2.7 1.6-2.8 0 0-12.5-0.1-12.7 0 -0.1 0-4.7 9.3-4.8 9.5 -2.9 5.7-5.7 11.4-8.6 17.1 -0.2 0.3-0.5 0.3-0.6-0.1 -0.1-1-0.2-2.1-0.3-3.1 -0.3-6.9-0.6-15.9-1-22.8 0-0.7 0-0.7-0.6-0.7 -3.5 0-11.9 0.1-11.9 0.1l0.3 3.3c1 11.4 1.8 22.8 3.3 34 0.9 6.4-3.1 12.2-10.9 12 -3.6-0.1-7.2 0-10.8 0 -2 0-3 0.8-3.4 2.9 -1.6 7.2-3.4 14.4-5.1 21.6 -0.6 2.4-1 4.8-1.5 7.4 1.2 0.1 2 0.1 2.7 0.2 3 0.5 4.3-0.8 4.7-3.7 0.6-3.6 1.7-7.2 2.4-10.8 1.8-8 1.7-8 9.8-8 0.1 0 0.2 0 0.3 0C499.2 93.9 506.4 89.3 511.4 80.4zM268.9 34.1c-1.9 0-2.4-0.2-2.9 2.5 -1.2 6.3-2.5 12.5-3.9 18.8 -1.3 6-2.7 12-4.2 18.6 3.5 0 6.5 0 9.6 0 2.6 0 2.3 0 2.8-2.3 1.1-5.2 2.2-10.4 3.6-15.5 0.9-3.4 1.8-6.8 3.2-9.9 1.3-2.9 3.9-4.5 7.2-4.4 2.6 0.1 4.2 1.3 4 4.1 -0.2 2.1-0.6 4.2-1 6.2 -1.6 7.1-3.4 14.2-5.2 21.8 3.5 0 6.6 0 9.7 0 2.9 0 2.4 0 3-2.4 1.2-5.7 2.6-11.3 3.8-17 0.8-3.9 1.7-7.8 1.9-11.8 0.3-4.7-2.6-8.1-7.2-8.9 -5.6-1.1-10.8-0.1-15.1 4 -0.6 0.6-1.3 1.1-2 1.7C275.9 33.5 278 34.1 268.9 34.1zM308.1 36.5c-2.2 9.5-4.5 19-6.7 28.5 -0.7 2.9-1.3 5.8-2 9 3.4 0 6.3 0 9.3 0 3.4 0 2.8 0.2 3.4-2.6 1.4-6.7 3.1-13.4 4.6-20.1 1.3-5.6 2.5-11.2 3.9-17.3 -3.5 0-6.5 0-9.6 0C308.6 34 308.8 33.7 308.1 36.5zM213.1 81.8c-1.7 0-3.9 0-4.8 0 -3.1 0-2.6-0.2-2.9 1.3 -0.9 4.3-3.2 13.9-4.7 19.7 -1.1 4.4-2 8.7-3.2 13.4 2.7 0 4.4 0 7 0C207.2 104.8 210.3 93.5 213.1 81.8zM293.8 97.4c0-0.8 0.7-3.1 0.4-3.1 -7.1 0-6.9-0.3-7.3 2.2 -1.7 7-2.4 13-4.2 20.3 1.2 0 5 0 5.8 0 1.1 0 1.4-2.9 2-5.9 0.7-3.4 1-6.2 2.2-9.1 0.8-1.9 4.5-3.9 8-2.8 0.7 0.2 3-3.2 3.7-4.2C300.4 92 296.5 94.7 293.8 97.4zM316.5 30.2c4.9 0 8.9-4 8.9-8.7 0-3.4-2.4-5.7-6-5.7 -4.8 0-9 4.1-9 8.7C310.4 27.9 312.9 30.2 316.5 30.2zM409.2 55.2c-1.4 6-2.8 12.1-4.3 18.7 3.8 0 7-0.1 10.2 0 1.9 0.1 2.6-0.7 3-2.5 0.9-4.5 2.2-9 3-13.5 0.4-2.5 1.4-3.7 4.1-3.4 2.3 0.2 4.6 0.1 6.9 0 8.1-0.4 14.7-3.9 19-10.9 3.3-5.4 4.6-11.5 1.5-17.4s-8.8-7.4-15.1-7.3c-5.7 0.1-11.4 0.1-17.1 0 -1.8 0-2.6 0.5-3.1 2.4C414.7 32.7 411.9 43.9 409.2 55.2zM429.3 27.8c2.8 0.1 5.6 0 8.3 0.7 2.9 0.8 4.3 3.1 3.9 6.3 -0.6 4.8-3 8.3-7.6 9.8 -2.9 1-6.1 1.1-10 1.8 1.5-6.5 2.7-11.8 4.1-17.1C428 28.7 428.8 27.8 429.3 27.8zM468.4 35.4C456 39.8 448 51.1 448.6 63.6c0.2 5.4 3.5 9.7 8.4 10.8 4.8 1.1 9.4 0.3 13.3-2.9 1.4-1.1 3.5-3.4 4.9-4.6 0.4 7.1 1.3 7.5 9.9 6.8 0.6-3.7 0.9-7.3 1.7-10.8 1.8-8.3 3.8-16.5 5.9-24.8 0.5-2.1 0.1-3.1-2.1-3.5C483.1 33 475.8 32.8 468.4 35.4zM473.4 60.5c-1.6 2.2-4 4.3-6.4 5.5 -2.8 1.4-5.3-0.3-5.8-3.2 -1.7-8.4 5.9-19.5 14.3-20.8 1.3-0.2 2.7 0 4.3 0C478.3 48.6 477.3 55.1 473.4 60.5zM320.8 63c0.3 3.4 2.1 6.3 4.9 8.2 6.7 4.7 13.9 4.3 21.2 1.7 10.3-3.7 18-16.8 16.1-27.5 -1.3-7.5-7.6-12-16.7-12C329.2 33.5 319.3 47.8 320.8 63zM344.6 64c-2.3 2.4-5.4 3.2-8.5 1.8 -3-1.3-3.1-4.2-3.1-7.5 0.3-4.4 1.6-9.1 5-12.8 1.6-1.7 4-3 6.3-3.4 3.6-0.7 6.2 1.7 6.4 5.4C351.1 53.7 349 59.4 344.6 64zM407.9 93c-6.9-1.8-15.1 1.8-18.4 8.2 -4.1 8 0 15.2 8.8 15.2s16.2-6.7 16.1-14.8C414.4 97.2 412 94.1 407.9 93zM400.7 111.7c-2.5 0.7-4.6-0.5-5.4-3 -1-3.4 1.4-9.2 4.6-10.9 4-2.1 7.3-0.1 7.3 4.4C407.2 106.4 404.2 110.7 400.7 111.7zM347.9 92.2c-10.4 0-19.6 8.5-18.3 18.9 0.4 3.4 2.6 5.2 6 5.3 3.3 0.1 5.9-1.8 8.3-5.2 0 0.5 0.3 3.4 0.3 3.7 0.2 1.8 0.8 1.5 3.4 1.5 1.7 0 2.1 0.2 2-0.9 -0.1-1.7-0.2-5.6 0.3-7.4 0.6-1.9 2.6-9.6 3.9-14.9C353.2 92.9 349.7 92.2 347.9 92.2zM343 108.7c-0.6 1-2.3 2.5-3.4 2.9 -0.9 0.3-2.7-0.4-3-1.5 -1.4-5.7 4.3-14.4 10.4-13.2C347 99.4 345.1 105.5 343 108.7zM274.7 92.9c-9.4-1.4-18.3 7.8-16.6 17.2 0.6 3.3 3.2 6.1 6.5 6.5 3.4 0.4 6.2 0.3 9.7-0.7 2.5-0.7 3.6-0.2 2.3-5 -0.6 0.4-2 1.2-3.1 1.4 -2.1 0.4-5.3 0.6-7-0.5 -1.2-0.9-2.2-2.4-2-5 0.1-1.3 0.2-1.1 3.8-1.1 3.4 0 6.8-0.1 10.2-0.1 0.8 0 2.2 0.1 2.3-0.4C281.5 101.4 280.6 93.8 274.7 92.9zM274.5 101.4c-0.5 0.4-1.7 0.3-2.7 0.3 -1.6 0-4.4 0.1-6.4 0.1 1.3-2.6 3.1-4.6 6.1-4.6C275.1 97.2 274.5 100.8 274.5 101.4zM383.6 37.8c-0.6 0.6-1.3 1.1-2 1.7 -0.5-6.1 1.7-5.4-7.5-5.4 -1.9 0-2.4-0.2-2.9 2.5 -1.2 6.3-2.5 12.5-3.9 18.8 -1.3 6-2.7 12-4.2 18.6 3.5 0 6.5-0.1 9.6 0 1.7 0.1 2.4-0.5 2.8-2.3 1.1-5.2 2.2-10.4 3.6-15.5 0.9-3.4 1.8-6.8 3.2-9.9 1.3-2.9 3.9-4.5 7.2-4.4 2.6 0.1 4.2 1.3 4 4.1 -0.2 2.1-0.6 4.2-1 6.2 -1.6 7.1-3.4 14.2-5.2 21.8 3.5 0 6.6-0.1 9.7 0 1.8 0.1 2.7-0.6 3-2.4 1.2-5.7 2.6-11.3 3.8-17 0.8-3.9 1.7-7.8 1.9-11.8 0.3-4.7-2.6-8.1-7.2-8.9C393.1 32.8 387.9 33.7 383.6 37.8zM232.4 93c-3.3-0.6-6.3-0.1-8.9 2.3 -0.4 0.3-0.7 0.7-1.2 1 -0.3-3.6 1-3.2-4.4-3.2 -1.1 0-1.4-0.1-1.7 1.5 -0.7 3.7-1.5 7.4-2.3 11.1 -0.8 3.6-1.6 7.1-2.5 10.9 2 0 3.9 0 5.7 0 1.5 0 1.4 0 1.6-1.3 0.6-3.1 1.3-6.1 2.1-9.1 0.5-2 1.1-4 1.9-5.9 0.8-1.7 2.3-2.7 4.3-2.6 1.5 0 2.5 0.8 2.4 2.4 -0.1 1.2-0.3 2.4-0.6 3.6 -1 4.2-2 8.4-3.1 12.9 2.1 0 3.9 0 5.7 0 1.7 0 1.4 0 1.8-1.4 0.7-3.3 1.6-6.7 2.3-10 0.5-2.3 1-4.6 1.1-7C236.8 95.5 235.1 93.5 232.4 93zM323.7 92.8c-3.3-0.6-6.3-0.1-8.9 2.3 -0.4 0.3-0.7 0.7-1.2 1 -0.3-3.6 1-3.2-4.4-3.2 -1.1 0-1.4-0.1-1.7 1.5 -0.7 3.7-1.5 7.4-2.3 11.1 -0.8 3.6-1.6 7.1-2.5 10.9 2 0 3.9 0 5.7 0 1.5 0 1.4 0 1.6-1.3 0.6-3.1 1.3-6.1 2.1-9.1 0.5-2 1.1-4 1.9-5.9 0.8-1.7 2.3-2.7 4.3-2.6 1.5 0 2.5 0.8 2.4 2.4 -0.1 1.2-0.3 2.4-0.6 3.6 -1 4.2-2 8.4-3.1 12.9 2.1 0 3.9 0 5.7 0 1.7 0 1.4 0 1.8-1.4 0.7-3.3 1.6-6.7 2.3-10 0.5-2.3 1-4.6 1.1-7C328.2 95.3 326.4 93.4 323.7 92.8zM436.5 92.5c-3.3-0.6-6.3-0.1-8.9 2.3 -0.4 0.3-0.7 0.7-1.2 1 -0.3-3.6 1-3.2-4.4-3.2 -1.1 0-1.4-0.1-1.7 1.5 -0.7 3.7-1.5 7.4-2.3 11.1 -0.8 3.6-1.6 7.1-2.5 10.9 2 0 3.9 0 5.7 0 1.5 0 1.4 0 1.6-1.3 0.6-3.1 1.3-6.1 2.1-9.1 0.5-2 1.1-4 1.9-5.9 0.8-1.7 2.3-2.7 4.3-2.6 1.5 0 2.5 0.8 2.4 2.4 -0.1 1.2-0.3 2.4-0.6 3.6 -1 4.2-2 8.4-3.1 12.9 2.1 0 3.9 0 5.7 0 1.7 0 1.4 0 1.8-1.4 0.7-3.3 1.6-6.7 2.3-10 0.5-2.3 1-4.6 1.1-7C440.9 95.1 439.2 93.1 436.5 92.5zM462 92.1c-10.4 0-19.6 8.5-18.3 18.9 0.4 3.4 2.6 5.2 6 5.3 3.3 0.1 5.9-1.8 8.3-5.2 0 0.5 0.3 3.4 0.3 3.7 0.2 1.8 0.8 1.5 3.4 1.5 1.7 0 2.1 0.2 2-0.9 -0.1-1.7-0.2-5.6 0.3-7.4 0.6-1.9 2.6-9.6 3.9-14.9C467.4 92.8 463.8 92.1 462 92.1zM457.1 108.7c-0.6 1-2.3 2.5-3.4 2.9 -0.9 0.3-2.7-0.4-3-1.5 -1.4-5.7 4.3-14.4 10.4-13.2C461.1 99.4 459.2 105.5 457.1 108.7zM381.2 93.3c-1.4 0-1.3-0.2-1.7 1.4 -1.2 5.4-2.6 10.8-3.8 16.3 -0.4 1.6-0.7 3.3-1.1 5.2 1.9 0 3.6 0 5.3 0 1.9 0 1.6 0.1 2-1.5 0.8-3.8 1.8-7.6 2.6-11.5 0.7-3.2 1.5-6.4 2.2-9.9C384.7 93.3 383 93.3 381.2 93.3zM389.4 86.1c0-1.9-1.4-3.2-3.4-3.2 -2.7 0-5.1 2.3-5.1 5 0 1.9 1.4 3.2 3.4 3.2C387.1 91.1 389.4 88.8 389.4 86.1zM370.6 83.2c-4.6 0-4.1-0.2-4.8 1.2 -2.1 4.9-3.3 7.8-3.5 8.1 -0.3 0.6-0.5 0.6-0.5 0.6h-3.7c0 0-1.6 4.3-0.9 4.2h3.6c-1 4.3-2 8.6-3 12.8 -0.8 3.4 0.4 5.5 3.9 6 2 0.3 5.9 0.2 8 0.2 1 0 0.7-1.6 1.1-3.9 -1.3 0-1.3 0-2 0 -4.6 0-5.4 0.4-4.4-4.8 0.5-2.5 1.5-5.2 2-7.8 0.8-2.9-0.1-2.5 4.4-2.5 3.8 0 3.2 0.4 3.7-4.3l-6.6 0.1C368.6 90 370 86 370.6 83.2zM257.9 93l-6.6 0.1c0.6-3.2 2-7.1 2.6-9.9 -4.6 0-4.1-0.2-4.8 1.2 -2.1 4.9-3.3 7.8-3.5 8.1 -0.3 0.6-0.5 0.6-0.5 0.6h-3.7c0 0-1.6 4.3-0.9 4.2h3.6c-1 4.3-2 8.6-3 12.8 -0.8 3.4 0.4 5.5 3.9 6 2 0.3 5.9 0.2 8 0.2 1 0 0.7-1.6 1.1-3.9 -1.3 0-1.3 0-2 0 -4.6 0-5.4 0.4-4.4-4.8 0.5-2.5 1.5-5.2 2-7.8 0.8-2.9-0.1-2.5 4.4-2.5C257.9 97.3 257.3 97.7 257.9 93z"/></svg>
