<?xml version="1.0" encoding="utf-8"?>
<!-- Generator: Adobe Illustrator 22.0.1, SVG Export Plug-In . SVG Version: 6.00 Build 0)  -->
<svg version="1.1" id="Layer_1" xmlns="http://www.w3.org/2000/svg" xmlns:xlink="http://www.w3.org/1999/xlink" x="0px" y="0px"
	 viewBox="0 0 538.6 117.6" style="enable-background:new 0 0 538.6 117.6;" xml:space="preserve">
<style type="text/css">
	.st0{fill:#01798A;}
	.st1{fill:#024381;}
	.st2{fill:#DD0228;}
	.st3{fill:#FFFFFF;}
</style>
<path d="M211.5,55.2c-1.7,7.5,0.6,13.2,6.5,16.6c14.1,8.1,33.4,0.8,37.9-14.7c2.8-9.8,4.7-19.8,7-29.8c0.6-2.8,1.2-5.5,1.9-8.6
	c-3.5,0-6.4,0.2-9.2-0.1c-2.5-0.2-3.5,0.6-4,3.1c-2.3,10.6-4.6,21.1-7.3,31.6c-0.8,3.3-2.5,6.6-4.6,9.2c-2.8,3.4-8.8,3.7-12.8,1.5
	c-3-1.7-3.7-4.4-2.5-9.9c1.9-8.3,3.8-16.6,5.7-24.9c0.8-3.4,1.5-6.8,2.3-10.5c-4,0-7.6-0.1-11.2,0.1c-0.6,0-1.5,1.2-1.6,2
	C216.9,32.2,214.2,43.7,211.5,55.2z M511.4,80.4c8.1-14.5,16.4-28.9,24.6-43.3c0.6-1.1,1.6-2.7,1.6-2.8c0,0-12.5-0.1-12.7,0
	c-0.1,0-4.7,9.3-4.8,9.5c-2.9,5.7-5.7,11.4-8.6,17.1c-0.2,0.3-0.5,0.3-0.6-0.1c-0.1-1-0.2-2.1-0.3-3.1c-0.3-6.9-0.6-15.9-1-22.8
	c0-0.7,0-0.7-0.6-0.7c-3.5,0-11.9,0.1-11.9,0.1l0.3,3.3c1,11.4,1.8,22.8,3.3,34c0.9,6.4-3.1,12.2-10.9,12c-3.6-0.1-7.2,0-10.8,0
	c-2,0-3,0.8-3.4,2.9c-1.6,7.2-3.4,14.4-5.1,21.6c-0.6,2.4-1,4.8-1.5,7.4c1.2,0.1,2,0.1,2.7,0.2c3,0.5,4.3-0.8,4.7-3.7
	c0.6-3.6,1.7-7.2,2.4-10.8c1.8-8,1.7-8,9.8-8c0.1,0,0.2,0,0.3,0C499.2,93.9,506.4,89.3,511.4,80.4z M268.9,34.1
	c-1.9,0-2.4-0.2-2.9,2.5c-1.2,6.3-2.5,12.5-3.9,18.8c-1.3,6-2.7,12-4.2,18.6c3.5,0,6.5,0,9.6,0c2.6,0,2.3,0,2.8-2.3
	c1.1-5.2,2.2-10.4,3.6-15.5c0.9-3.4,1.8-6.8,3.2-9.9c1.3-2.9,3.9-4.5,7.2-4.4c2.6,0.1,4.2,1.3,4,4.1c-0.2,2.1-0.6,4.2-1,6.2
	c-1.6,7.1-3.4,14.2-5.2,21.8c3.5,0,6.6,0,9.7,0c2.9,0,2.4,0,3-2.4c1.2-5.7,2.6-11.3,3.8-17c0.8-3.9,1.7-7.8,1.9-11.8
	c0.3-4.7-2.6-8.1-7.2-8.9c-5.6-1.1-10.8-0.1-15.1,4c-0.6,0.6-1.3,1.1-2,1.7C275.9,33.5,278,34.1,268.9,34.1z M308.1,36.5
	c-2.2,9.5-4.5,19-6.7,28.5c-0.7,2.9-1.3,5.8-2,9c3.4,0,6.3,0,9.3,0c3.4,0,2.8,0.2,3.4-2.6c1.4-6.7,3.1-13.4,4.6-20.1
	c1.3-5.6,2.5-11.2,3.9-17.3c-3.5,0-6.5,0-9.6,0C308.6,34,308.8,33.7,308.1,36.5z M213.1,81.8c-1.7,0-3.9,0-4.8,0
	c-3.1,0-2.6-0.2-2.9,1.3c-0.9,4.3-3.2,13.9-4.7,19.7c-1.1,4.4-2,8.7-3.2,13.4c2.7,0,4.4,0,7,0C207.2,104.8,210.3,93.5,213.1,81.8z
	 M293.8,97.4c0-0.8,0.7-3.1,0.4-3.1c-7.1,0-6.9-0.3-7.3,2.2c-1.7,7-2.4,13-4.2,20.3c1.2,0,5,0,5.8,0c1.1,0,1.4-2.9,2-5.9
	c0.7-3.4,1-6.2,2.2-9.1c0.8-1.9,4.5-3.9,8-2.8c0.7,0.2,3-3.2,3.7-4.2C300.4,92,296.5,94.7,293.8,97.4z M316.5,30.2
	c4.9,0,8.9-4,8.9-8.7c0-3.4-2.4-5.7-6-5.7c-4.8,0-9,4.1-9,8.7C310.4,27.9,312.9,30.2,316.5,30.2z M409.2,55.2
	c-1.4,6-2.8,12.1-4.3,18.7c3.8,0,7-0.1,10.2,0c1.9,0.1,2.6-0.7,3-2.5c0.9-4.5,2.2-9,3-13.5c0.4-2.5,1.4-3.7,4.1-3.4
	c2.3,0.2,4.6,0.1,6.9,0c8.1-0.4,14.7-3.9,19-10.9c3.3-5.4,4.6-11.5,1.5-17.4s-8.8-7.4-15.1-7.3c-5.7,0.1-11.4,0.1-17.1,0
	c-1.8,0-2.6,0.5-3.1,2.4C414.7,32.7,411.9,43.9,409.2,55.2z M429.3,27.8c2.8,0.1,5.6,0,8.3,0.7c2.9,0.8,4.3,3.1,3.9,6.3
	c-0.6,4.8-3,8.3-7.6,9.8c-2.9,1-6.1,1.1-10,1.8c1.5-6.5,2.7-11.8,4.1-17.1C428,28.7,428.8,27.8,429.3,27.8z M468.4,35.4
	C456,39.8,448,51.1,448.6,63.6c0.2,5.4,3.5,9.7,8.4,10.8c4.8,1.1,9.4,0.3,13.3-2.9c1.4-1.1,3.5-3.4,4.9-4.6c0.4,7.1,1.3,7.5,9.9,6.8
	c0.6-3.7,0.9-7.3,1.7-10.8c1.8-8.3,3.8-16.5,5.9-24.8c0.5-2.1,0.1-3.1-2.1-3.5C483.1,33,475.8,32.8,468.4,35.4z M473.4,60.5
	c-1.6,2.2-4,4.3-6.4,5.5c-2.8,1.4-5.3-0.3-5.8-3.2c-1.7-8.4,5.9-19.5,14.3-20.8c1.3-0.2,2.7,0,4.3,0
	C478.3,48.6,477.3,55.1,473.4,60.5z M320.8,63c0.3,3.4,2.1,6.3,4.9,8.2c6.7,4.7,13.9,4.3,21.2,1.7c10.3-3.7,18-16.8,16.1-27.5
	c-1.3-7.5-7.6-12-16.7-12C329.2,33.5,319.3,47.8,320.8,63z M344.6,64c-2.3,2.4-5.4,3.2-8.5,1.8c-3-1.3-3.1-4.2-3.1-7.5
	c0.3-4.4,1.6-9.1,5-12.8c1.6-1.7,4-3,6.3-3.4c3.6-0.7,6.2,1.7,6.4,5.4C351.1,53.7,349,59.4,344.6,64z M407.9,93
	c-6.9-1.8-15.1,1.8-18.4,8.2c-4.1,8,0,15.2,8.8,15.2s16.2-6.7,16.1-14.8C414.4,97.2,412,94.1,407.9,93z M400.7,111.7
	c-2.5,0.7-4.6-0.5-5.4-3c-1-3.4,1.4-9.2,4.6-10.9c4-2.1,7.3-0.1,7.3,4.4C407.2,106.4,404.2,110.7,400.7,111.7z M347.9,92.2
	c-10.4,0-19.6,8.5-18.3,18.9c0.4,3.4,2.6,5.2,6,5.3c3.3,0.1,5.9-1.8,8.3-5.2c0,0.5,0.3,3.4,0.3,3.7c0.2,1.8,0.8,1.5,3.4,1.5
	c1.7,0,2.1,0.2,2-0.9c-0.1-1.7-0.2-5.6,0.3-7.4c0.6-1.9,2.6-9.6,3.9-14.9C353.2,92.9,349.7,92.2,347.9,92.2z M343,108.7
	c-0.6,1-2.3,2.5-3.4,2.9c-0.9,0.3-2.7-0.4-3-1.5c-1.4-5.7,4.3-14.4,10.4-13.2C347,99.4,345.1,105.5,343,108.7z M274.7,92.9
	c-9.4-1.4-18.3,7.8-16.6,17.2c0.6,3.3,3.2,6.1,6.5,6.5c3.4,0.4,6.2,0.3,9.7-0.7c2.5-0.7,3.6-0.2,2.3-5c-0.6,0.4-2,1.2-3.1,1.4
	c-2.1,0.4-5.3,0.6-7-0.5c-1.2-0.9-2.2-2.4-2-5c0.1-1.3,0.2-1.1,3.8-1.1c3.4,0,6.8-0.1,10.2-0.1c0.8,0,2.2,0.1,2.3-0.4
	C281.5,101.4,280.6,93.8,274.7,92.9z M274.5,101.4c-0.5,0.4-1.7,0.3-2.7,0.3c-1.6,0-4.4,0.1-6.4,0.1c1.3-2.6,3.1-4.6,6.1-4.6
	C275.1,97.2,274.5,100.8,274.5,101.4z M383.6,37.8c-0.6,0.6-1.3,1.1-2,1.7c-0.5-6.1,1.7-5.4-7.5-5.4c-1.9,0-2.4-0.2-2.9,2.5
	c-1.2,6.3-2.5,12.5-3.9,18.8c-1.3,6-2.7,12-4.2,18.6c3.5,0,6.5-0.1,9.6,0c1.7,0.1,2.4-0.5,2.8-2.3c1.1-5.2,2.2-10.4,3.6-15.5
	c0.9-3.4,1.8-6.8,3.2-9.9c1.3-2.9,3.9-4.5,7.2-4.4c2.6,0.1,4.2,1.3,4,4.1c-0.2,2.1-0.6,4.2-1,6.2c-1.6,7.1-3.4,14.2-5.2,21.8
	c3.5,0,6.6-0.1,9.7,0c1.8,0.1,2.7-0.6,3-2.4c1.2-5.7,2.6-11.3,3.8-17c0.8-3.9,1.7-7.8,1.9-11.8c0.3-4.7-2.6-8.1-7.2-8.9
	C393.1,32.8,387.9,33.7,383.6,37.8z M232.4,93c-3.3-0.6-6.3-0.1-8.9,2.3c-0.4,0.3-0.7,0.7-1.2,1c-0.3-3.6,1-3.2-4.4-3.2
	c-1.1,0-1.4-0.1-1.7,1.5c-0.7,3.7-1.5,7.4-2.3,11.1c-0.8,3.6-1.6,7.1-2.5,10.9c2,0,3.9,0,5.7,0c1.5,0,1.4,0,1.6-1.3
	c0.6-3.1,1.3-6.1,2.1-9.1c0.5-2,1.1-4,1.9-5.9c0.8-1.7,2.3-2.7,4.3-2.6c1.5,0,2.5,0.8,2.4,2.4c-0.1,1.2-0.3,2.4-0.6,3.6
	c-1,4.2-2,8.4-3.1,12.9c2.1,0,3.9,0,5.7,0c1.7,0,1.4,0,1.8-1.4c0.7-3.3,1.6-6.7,2.3-10c0.5-2.3,1-4.6,1.1-7
	C236.8,95.5,235.1,93.5,232.4,93z M323.7,92.8c-3.3-0.6-6.3-0.1-8.9,2.3c-0.4,0.3-0.7,0.7-1.2,1c-0.3-3.6,1-3.2-4.4-3.2
	c-1.1,0-1.4-0.1-1.7,1.5c-0.7,3.7-1.5,7.4-2.3,11.1c-0.8,3.6-1.6,7.1-2.5,10.9c2,0,3.9,0,5.7,0c1.5,0,1.4,0,1.6-1.3
	c0.6-3.1,1.3-6.1,2.1-9.1c0.5-2,1.1-4,1.9-5.9c0.8-1.7,2.3-2.7,4.3-2.6c1.5,0,2.5,0.8,2.4,2.4c-0.1,1.2-0.3,2.4-0.6,3.6
	c-1,4.2-2,8.4-3.1,12.9c2.1,0,3.9,0,5.7,0c1.7,0,1.4,0,1.8-1.4c0.7-3.3,1.6-6.7,2.3-10c0.5-2.3,1-4.6,1.1-7
	C328.2,95.3,326.4,93.4,323.7,92.8z M436.5,92.5c-3.3-0.6-6.3-0.1-8.9,2.3c-0.4,0.3-0.7,0.7-1.2,1c-0.3-3.6,1-3.2-4.4-3.2
	c-1.1,0-1.4-0.1-1.7,1.5c-0.7,3.7-1.5,7.4-2.3,11.1c-0.8,3.6-1.6,7.1-2.5,10.9c2,0,3.9,0,5.7,0c1.5,0,1.4,0,1.6-1.3
	c0.6-3.1,1.3-6.1,2.1-9.1c0.5-2,1.1-4,1.9-5.9c0.8-1.7,2.3-2.7,4.3-2.6c1.5,0,2.5,0.8,2.4,2.4c-0.1,1.2-0.3,2.4-0.6,3.6
	c-1,4.2-2,8.4-3.1,12.9c2.1,0,3.9,0,5.7,0c1.7,0,1.4,0,1.8-1.4c0.7-3.3,1.6-6.7,2.3-10c0.5-2.3,1-4.6,1.1-7
	C440.9,95.1,439.2,93.1,436.5,92.5z M462,92.1c-10.4,0-19.6,8.5-18.3,18.9c0.4,3.4,2.6,5.2,6,5.3c3.3,0.1,5.9-1.8,8.3-5.2
	c0,0.5,0.3,3.4,0.3,3.7c0.2,1.8,0.8,1.5,3.4,1.5c1.7,0,2.1,0.2,2-0.9c-0.1-1.7-0.2-5.6,0.3-7.4c0.6-1.9,2.6-9.6,3.9-14.9
	C467.4,92.8,463.8,92.1,462,92.1z M457.1,108.7c-0.6,1-2.3,2.5-3.4,2.9c-0.9,0.3-2.7-0.4-3-1.5c-1.4-5.7,4.3-14.4,10.4-13.2
	C461.1,99.4,459.2,105.5,457.1,108.7z M381.2,93.3c-1.4,0-1.3-0.2-1.7,1.4c-1.2,5.4-2.6,10.8-3.8,16.3c-0.4,1.6-0.7,3.3-1.1,5.2
	c1.9,0,3.6,0,5.3,0c1.9,0,1.6,0.1,2-1.5c0.8-3.8,1.8-7.6,2.6-11.5c0.7-3.2,1.5-6.4,2.2-9.9C384.7,93.3,383,93.3,381.2,93.3z
	 M389.4,86.1c0-1.9-1.4-3.2-3.4-3.2c-2.7,0-5.1,2.3-5.1,5c0,1.9,1.4,3.2,3.4,3.2C387.1,91.1,389.4,88.8,389.4,86.1z M370.6,83.2
	c-4.6,0-4.1-0.2-4.8,1.2c-2.1,4.9-3.3,7.8-3.5,8.1c-0.3,0.6-0.5,0.6-0.5,0.6h-3.7c0,0-1.6,4.3-0.9,4.2h3.6c-1,4.3-2,8.6-3,12.8
	c-0.8,3.4,0.4,5.5,3.9,6c2,0.3,5.9,0.2,8,0.2c1,0,0.7-1.6,1.1-3.9c-1.3,0-1.3,0-2,0c-4.6,0-5.4,0.4-4.4-4.8c0.5-2.5,1.5-5.2,2-7.8
	c0.8-2.9-0.1-2.5,4.4-2.5c3.8,0,3.2,0.4,3.7-4.3l-6.6,0.1C368.6,90,370,86,370.6,83.2z M257.9,93l-6.6,0.1c0.6-3.2,2-7.1,2.6-9.9
	c-4.6,0-4.1-0.2-4.8,1.2c-2.1,4.9-3.3,7.8-3.5,8.1c-0.3,0.6-0.5,0.6-0.5,0.6h-3.7c0,0-1.6,4.3-0.9,4.2h3.6c-1,4.3-2,8.6-3,12.8
	c-0.8,3.4,0.4,5.5,3.9,6c2,0.3,5.9,0.2,8,0.2c1,0,0.7-1.6,1.1-3.9c-1.3,0-1.3,0-2,0c-4.6,0-5.4,0.4-4.4-4.8c0.5-2.5,1.5-5.2,2-7.8
	c0.8-2.9-0.1-2.5,4.4-2.5C257.9,97.3,257.3,97.7,257.9,93z"/>
<g>
	<path id="path22" class="st0" d="M175.8,0.2h-45.4l0,0h-0.1c-6.2,0.2-14,5.2-15.4,11.4l-21.5,95c-1.4,6.2,2.4,11.3,8.6,11.4h47.7
		c6.1-0.3,12-5.2,13.4-11.3l21.5-95C186,5.3,182.1,0.2,175.8,0.2"/>
	<path id="path20" class="st1" d="M93.4,106.5l21.5-95c1.4-6.2,9.2-11.2,15.4-11.4h-18H79.8c-6.3,0.1-14.1,5.2-15.5,11.4l-21.5,95
		c-1.4,6.2,2.4,11.3,8.6,11.4H102C95.8,117.8,92,112.7,93.4,106.5"/>
	<path id="path16" class="st2" d="M42.7,106.5l21.5-95c1.4-6.2,9.3-11.2,15.5-11.4H38c-6.3,0-14.3,5.1-15.8,11.4l-21.5,95
		c-0.1,0.6-0.2,1.1-0.2,1.7v1.8c0.4,4.5,3.9,7.8,8.9,7.9h41.9C45.2,117.8,41.3,112.7,42.7,106.5"/>
</g>
<g>
	<path id="path24" class="st3" d="M80.6,69.3h0.8c0.7,0,1.2-0.2,1.4-0.7l2-3.1h5.5l-1.1,2h6.6L95,70.7h-7.8c-0.9,1.4-2,2-3.3,1.9
		h-4.1L80.6,69.3 M79.7,73.8h14.4l-0.9,3.4h-5.8l-0.9,3.2h5.6l-0.9,3.4h-5.6l-1.3,4.8c-0.3,0.8,0.1,1.2,1.3,1.1h4.6l-0.9,3.1h-8.8
		c-1.7,0-2.2-1-1.7-2.9l1.7-6.1h-3.6l0.9-3.4h3.6l0.9-3.2h-3.4L79.7,73.8z M102.7,65.5l-0.2,2c0,0,2.7-2,5.2-2h9.1l-3.5,12.6
		c-0.3,1.4-1.5,2.2-3.7,2.2H99.2l-2.4,8.9c-0.1,0.5,0.1,0.7,0.6,0.7h2l-0.7,2.8h-5.2c-2,0-2.8-0.6-2.5-1.8l6.8-25.3L102.7,65.5
		L102.7,65.5z M110.4,69.1h-8.1l-1,3.4c0,0,1.4-1,3.6-1c2.3,0,4.8,0,4.8,0L110.4,69.1z M107.5,77c0.6,0.1,0.9-0.2,1-0.7l0.5-1.8
		h-8.2l-0.7,2.5H107.5z M102,81.1h4.7l-0.1,2h1.3c0.6,0,0.9-0.2,0.9-0.6l0.4-1.3h3.9l-0.5,1.9c-0.4,1.6-1.6,2.4-3.5,2.5h-2.5v3.5
		c0,0.6,0.5,0.8,1.5,0.8h2.4l-0.8,2.8H104c-1.6,0.1-2.4-0.7-2.3-2.3L102,81.1"/>
	<path id="path28" class="st3" d="M45,48.7c-0.6,3.1-2.1,5.5-4.4,7.2c-2.3,1.7-5.2,2.5-8.8,2.5c-3.4,0-5.9-0.9-7.4-2.6
		c-1.1-1.2-1.6-2.8-1.6-4.7c0-0.8,0.1-1.6,0.3-2.5l3.8-18.4h5.8l-3.8,18.2c-0.1,0.5-0.2,1-0.2,1.4c0,0.9,0.2,1.7,0.7,2.3
		c0.7,0.9,1.8,1.3,3.3,1.3c1.8,0,3.2-0.4,4.4-1.3c1.1-0.9,1.9-2.1,2.2-3.7l3.8-18.2h5.7L45,48.7"/>
	<path id="path34" class="st3" d="M69.3,41.5h4.5l-3.5,16.4h-4.5L69.3,41.5 M70.7,35.5h4.6l-0.9,4h-4.6L70.7,35.5"/>
	<path id="path36" class="st3" d="M77.8,56.7C76.6,55.5,76,54,76,52.1c0-0.3,0-0.7,0.1-1.1c0-0.4,0.1-0.8,0.2-1.2
		c0.5-2.7,1.7-4.8,3.4-6.4c1.8-1.6,3.9-2.4,6.4-2.4c2,0,3.6,0.6,4.8,1.7c1.2,1.1,1.8,2.7,1.8,4.6c0,0.3,0,0.7-0.1,1.1
		c-0.1,0.4-0.1,0.8-0.2,1.2c-0.5,2.6-1.7,4.7-3.4,6.3c-1.8,1.5-3.9,2.3-6.3,2.3C80.6,58.3,79,57.8,77.8,56.7 M86.4,53.4
		c0.8-0.9,1.4-2.2,1.7-3.9c0.1-0.3,0.1-0.6,0.1-0.8c0-0.3,0-0.5,0-0.8c0-1-0.3-1.8-0.8-2.4c-0.5-0.6-1.2-0.8-2.2-0.8
		c-1.3,0-2.3,0.4-3.1,1.3c-0.8,0.9-1.4,2.2-1.7,4c0,0.3-0.1,0.5-0.1,0.8s0,0.5,0,0.8c0,1,0.3,1.8,0.8,2.3c0.5,0.6,1.2,0.8,2.2,0.8
		C84.6,54.7,85.6,54.3,86.4,53.4"/>
	<path id="path26" class="st3" d="M121.9,69.5l1.1-3.8h5.5l-0.2,1.4c0,0,2.8-1.4,4.8-1.4s6.8,0,6.8,0l-1.1,3.8h-1.1l-5.1,18.1h1.1
		l-1,3.6h-1.1l-0.4,1.6h-5.3l0.4-1.6h-10.5l1-3.6h1.1l5.1-18.1H121.9 M127.9,69.5l-1.4,4.9c0,0,2.4-0.9,4.5-1.2
		c0.5-1.7,1.1-3.7,1.1-3.7L127.9,69.5z M125.8,76.7l-1.4,5.1c0,0,2.7-1.3,4.5-1.4c0.5-2,1.1-3.7,1.1-3.7H125.8z M126.9,87.6l1.1-3.7
		h-4.1l-1.1,3.7H126.9z M140.2,65.4h5.2l0.2,1.9c0,0.5,0.3,0.7,0.9,0.7h0.9l-0.9,3.2h-3.8c-1.5,0.1-2.2-0.5-2.3-1.7L140.2,65.4z
		 M138.7,72.4h16.8l-1,3.5h-5.3l-0.9,3.2h5.3l-1,3.5h-5.9l-1.3,2h2.9l0.7,4.1c0.1,0.4,0.4,0.6,1.1,0.6h0.9l-0.9,3.4h-3.2
		c-1.7,0.1-2.5-0.5-2.6-1.7l-0.8-3.7l-2.6,4c-0.6,1.1-1.6,1.6-2.9,1.6h-4.9l1-3.4h1.5c0.6,0,1.1-0.3,1.6-0.8l4.1-6H136l1-3.5h5.8
		l0.9-3.2h-5.8L138.7,72.4"/>
	<path id="path30" class="st3" d="M50.3,41.5h4.1l-0.5,2.4l0.6-0.7c1.3-1.4,2.9-2.1,4.8-2.1c1.7,0,3,0.5,3.7,1.5
		c0.8,1,1,2.4,0.6,4.2L61.4,58h-4.2l2-10.2c0.2-1,0.2-1.8-0.2-2.3c-0.3-0.5-0.9-0.8-1.8-0.8c-1.1,0-2,0.3-2.7,1s-1.2,1.6-1.5,2.8
		L51.1,58H47L50.3,41.5"/>
	<path id="path32" class="st3" d="M97.1,41.5h4.1l-0.5,2.4l0.6-0.7c1.3-1.4,2.9-2.1,4.8-2.1c1.7,0,3,0.5,3.7,1.5
		c0.8,1,1,2.4,0.6,4.2L108.2,58H104l2-10.2c0.2-1,0.2-1.8-0.2-2.3c-0.3-0.5-0.9-0.8-1.8-0.8c-1.1,0-2,0.3-2.7,1s-1.2,1.6-1.5,2.8
		L98,57.9h-4.2L97.1,41.5"/>
	<path id="path38" class="st3" d="M117.3,31.3h11.8c2.3,0,4,0.5,5.2,1.5s1.8,2.5,1.8,4.4v0.1c0,0.4,0,0.8-0.1,1.2s-0.1,0.9-0.2,1.4
		c-0.5,2.5-1.7,4.6-3.6,6.1c-1.9,1.5-4.1,2.3-6.7,2.3h-6.4l-2,9.6h-5.5L117.3,31.3 M120.2,43.6h5.3c1.4,0,2.5-0.3,3.3-1
		c0.8-0.6,1.3-1.6,1.6-2.9c0-0.2,0.1-0.5,0.1-0.7s0-0.4,0-0.6c0-0.9-0.3-1.6-1-2.1c-0.7-0.4-1.7-0.6-3.2-0.6h-4.5L120.2,43.6"/>
	<path id="path40" class="st3" d="M160.8,61.1c-1.7,3.7-3.4,5.9-4.4,6.9s-2.9,3.3-7.6,3.1l0.4-2.8c3.9-1.2,6-6.6,7.2-9L155,41.5h3
		h2.5l0.3,11.1l4.8-11.1h4.8L160.8,61.1"/>
	<path id="path42" class="st3" d="M147.3,42.8l-1.9,1.3c-2-1.6-3.8-2.5-7.3-0.9c-4.8,2.2-8.8,19.3,4.4,13.7l0.8,0.9l5.2,0.1
		l3.4-15.5L147.3,42.8 M144.4,51.3c-0.8,2.5-2.7,4.1-4.2,3.6s-2-2.8-1.1-5.3c0.8-2.5,2.7-4.1,4.2-3.6
		C144.7,46.4,145.2,48.8,144.4,51.3"/>
</g>
</svg>
