<svg xmlns="http://www.w3.org/2000/svg" viewBox="0 0 270 49.7"><style type="text/css">
	.st0{fill:#FFFFFF;}
</style><path class="st0" d="M20.8 31.2c-0.2 0.2-0.5 0.2-0.9 0.2 -0.7 0-1.3-0.4-1.6-0.9l-0.2-0.2 -5.1-11c0-0.3 0-0.3 0-0.5 0-0.5 0.4-0.9 0.9-0.9 0.2 0 0.4 0.1 0.5 0.2l5.9 4.2c0.5 0.3 0.9 0.5 1.5 0.5 0.3 0 0.6-0.1 0.9-0.2l27.9-12.4c-5-5.9-13.2-9.7-22.6-9.7 -15.2 0-27.6 10.3-27.6 23 0 6.9 3.7 13.1 9.6 17.4 0.5 0.3 0.8 0.9 0.8 1.5 0 0.2-0.1 0.4-0.1 0.6 -0.5 1.7-1.2 4.5-1.2 4.7 -0.1 0.2-0.2 0.5-0.2 0.7 0 0.5 0.4 0.9 0.9 0.9 0.2 0 0.4-0.1 0.5-0.2l6.1-3.5c0.5-0.2 0.9-0.4 1.5-0.4 0.3 0 0.5 0.1 0.8 0.2 2.8 0.8 5.8 1.2 9 1.2 15.2 0 27.6-10.3 27.6-23 0-3.9-1.2-7.5-3.1-10.7L21 31 20.8 31.2zM96.2 25.8c-0.2 0.7-0.4 1.4-0.6 2.2 -0.8 2.7-1.4 5.1-2 7.5 -0.5-2.9-1.4-6.3-2.3-9.8L86.6 8.6h-2.3l-5 17.3c-1.1 3.7-2.2 7.1-2.6 9.7 -0.5-2.3-1.2-5.2-2-8.2L69.8 8.6h-2.6l8.1 30.7h2.3l5.2-17.7c1.3-4.1 2.1-7 2.6-9.5 0.4 2.7 1.1 5.6 2.2 9.5l4.6 17.6h2.3l9.2-30.7h-2.6L96.2 25.8zM120 36.5c-1.3 0.6-2.9 1.1-5.7 1.1 -5.1 0-8-3.4-8-9.2h15.9v-0.2c0.1-0.4 0.1-0.7 0.1-1.4 0-0.8-0.1-3.7-1.6-6.2s-3.9-3.8-7-3.8c-5.9 0-9.9 4.8-9.9 11.9 0 6.6 4.1 11 10.3 11 3.9 0 6.1-1 6.9-1.4l0.2-0.1L120 36.5zM113.4 19.1c1.8 0 3.2 0.6 4.3 1.6 1.8 1.8 1.9 4.3 1.9 5.5h-13.3C106.8 22.8 108.9 19.1 113.4 19.1zM141 37.5c-7.9 0-12.7-5-12.7-13.3 0-8.7 4.9-13.9 13-13.9 2.2 0 4.4 0.4 6 1.2l1.1-2 -0.1-0.1c-0.6-0.3-2.8-1.4-7.1-1.4 -9.3 0-15.6 6.4-15.6 16.1 0 11.6 7.9 15.7 14.5 15.7 3.9 0 6.7-0.8 8.3-1.5l0.1-0.1 -1.1-1.9C145.8 37 143.4 37.5 141 37.5zM162.4 16.8c-1.6 0-3.1 0.5-4.5 1.3 -1 0.6-2.1 1.6-2.7 2.7V8.1h-2.6v31.2h2.6V26c0-0.9 0.1-1.4 0.2-2.1 1-2.8 3.6-4.7 6.3-4.7 5 0 5.8 4.6 5.8 7.2v13h2.6V26.1C170.1 17.3 163.7 16.8 162.4 16.8zM202.6 37.4c-0.5 0.1-1 0.2-1.9 0.2 -2 0-3-1.4-3-4.3V19.5h6.2v-2.1h-6.2v-4.8h-2.6v4.8h-3.6v2.1h3.6V33c0 2.5 0.5 4.3 1.4 5.3 0.8 1 2.2 1.6 3.9 1.6 1.2 0 2.2-0.2 3.1-0.6l0.1-0.1L202.6 37.4zM220.9 8.4c-2.2 0-4.4 0.2-6.6 0.6h-0.2v30.3h2.6V26.5c1 0.2 2.1 0.3 3.5 0.3 3.9 0 7.1-1.2 9.1-3.5 1.4-1.6 2.2-3.6 2.2-6.2 0-2.5-0.8-4.6-2.4-6.1C227.3 9.3 224.5 8.4 220.9 8.4zM228.9 17.3c0 4.6-3.1 7.2-8.5 7.2 -1.1 0-2.6-0.1-3.7-0.4V10.9c0.6-0.1 1.9-0.3 4.1-0.3C226 10.6 228.9 13 228.9 17.3zM266.4 17.4l-5.3 14.1c-0.5 1.3-0.9 2.5-1.3 3.6 -0.1 0.2-0.2 0.5-0.2 0.7 -0.4-1.4-1-3-1.4-4.3l-5.7-14.1 -0.1-0.1h-2.7l8.1 20.3c0.2 0.6 0.2 0.8 0.2 0.9 0 0.2-0.1 0.5-0.2 0.9 -1.1 2.6-2.6 4.3-3.5 5.4 -1.4 1.4-3 2.1-3.7 2.3l-0.2 0.1 1.1 2c0.6-0.2 2-0.9 3.6-2.2 2.8-2.5 4.6-6.3 7.3-13.2l6.6-16.4H266.4L266.4 17.4zM189.8 39.1c-0.2-1.7-0.3-3.5-0.3-5.1v-8.4c0-5.7-2.6-8.7-7.6-8.7 -2.2 0-4.7 0.7-6.4 1.8l0 0 1 1.8c1.4-1 3.3-1.5 5.2-1.5h0.1c1.6 0 2.9 0.4 3.7 1.3 1 1 1.5 2.6 1.5 4.9v0.4c-5.3-0.1-9.1 1-11.2 3.2 -1.3 1.3-2 3-2 4.9 0 3 2 6.1 6.5 6.1 3.3 0 5.6-1.7 6.9-3.4l0.3 2.9h2.3V39.1zM187 32.2c0 0.3 0 0.8-0.2 1.3 -0.7 2-2.6 4.2-6.2 4.2 -1.9 0-4.2-1.1-4.2-4.3 0-1.4 0.5-2.5 1.4-3.4 1.5-1.5 4.3-2.2 8.4-2.2 0.2 0 0.6 0 0.8 0V32.2L187 32.2zM247.8 39.1c-0.2-1.7-0.3-3.5-0.3-5.1v-8.4c0-5.7-2.6-8.7-7.6-8.7 -2.2 0-4.4 0.6-6.2 1.7l1 1.8c1.4-0.9 3.1-1.4 5-1.4h0.1c1.6 0 2.9 0.4 3.7 1.3 1 1 1.5 2.6 1.5 4.9v0.4c-5.3-0.1-9.1 1-11.2 3.2 -1.3 1.3-2 3-2 4.9 0 3 2 6.1 6.5 6.1 3.3 0 5.6-1.7 6.9-3.4l0.3 2.9h2.3V39.1zM245 32.2c0 0.3 0 0.8-0.2 1.3 -0.7 2-2.6 4.2-6.2 4.2 -1.9 0-4.2-1.1-4.2-4.3 0-1.4 0.5-2.5 1.4-3.4 1.5-1.5 4.3-2.2 8.4-2.2 0.2 0 0.6 0 0.8 0"/></svg>
