<?xml version="1.0" encoding="utf-8"?>
<svg version="1.1" xmlns="http://www.w3.org/2000/svg" xmlns:xlink="http://www.w3.org/1999/xlink" x="0px" y="0px"
	 viewBox="0 0 197 49.5" style="enable-background:new 0 0 197 49.5;" xml:space="preserve">
<style type="text/css">
	.st0{fill-rule:evenodd;clip-rule:evenodd;fill:#ffffff;}
	.st1{fill-rule:evenodd;clip-rule:evenodd;fill:#ffffff;}
</style>
<path class="st0" d="M27.5,46.8c0,0.5-0.3,0.7-0.7,0.7h-3.5c-1.5,0-1.9-0.4-1.9-2V37c0-2.2-0.4-2.6-2.2-2.6H8.4
	c-1.9,0-2.2,0.3-2.2,2.5v8.6c0,1.6-0.5,2-2,2H0.6c-0.5,0-0.6-0.3-0.6-0.8V17c0-0.5,0.3-0.7,0.6-0.7h3.5c1.6,0,2,0.3,2,2.1v8.2
	c0,2.4,0.4,2.5,2.2,2.5h10.9c1.7,0,2.1-0.4,2.1-2.4V2c0-1.6,0.4-2,1.9-2h3.5c0.6,0,0.7,0.4,0.7,0.8V46.8z M38.8,7.2
	c0-1.1-0.4-1.7-1.6-1.7h-4.2c-0.4,0-0.6,0.2-0.6,0.7v42.4c0,0.6,0.1,0.9,0.6,0.9h4.1c1.3,0,1.8-0.5,1.8-1.7V37.5
	c0-1.7,0.1-1.9,1.5-1.9h3.8c2.5,0,3.4,0.6,4.6,3l3.7,7.4c1.4,2.7,2.5,3.6,5.4,3.6h2.3c0.5,0,1-0.3,0.7-1l-6.2-12
	c-0.8-1.6-1.2-2.7-1.2-3.5c0-0.7,0.4-1.6,1.1-3l6.4-12.4c0.4-0.9-0.2-1.1-0.5-1.1h-2.2c-2.8,0-4,1.1-5.2,3.4l-3.8,7.4
	c-1.1,2.2-2.1,2.8-4.9,2.8h-3.9c-1.5,0-1.6-0.1-1.6-1.8V7.2z"/>
<path class="st1" d="M67.7,21.6c-0.9,0.6-1.1,1.9-1.1,2.5c0,0.4,0.2,0.5,1,0.5h5.5c0.9,0,1.5,0.1,1.6-0.1c0.1-0.1,0.3-0.3,0.3-0.5
	c0-1-0.3-2.2-1-2.6c-0.5-0.4-1.4-0.6-3-0.6C69.3,20.8,68.4,21.1,67.7,21.6 M64.5,19.1c1.3-1,3.4-1.6,6.7-1.6c3.2,0,5,0.5,6.2,1.4
	c1.2,1,2.1,3,2.1,7.9c0,0.6-0.1,1-0.7,1H67.7c-1,0-1.1,0.1-1.1,0.6c0,1.1,0.3,1.9,1.1,2.5c0.7,0.7,2.4,1,4.8,1
	c2.4,0,4.7-0.3,5.9-0.5c0.3-0.1,0.6,0.2,0.6,0.5c0,0.9-0.8,2.3-1.7,2.8c-0.7,0.4-2.9,0.8-6,0.8c-3.4,0-5.8-0.6-7.1-1.7
	c-1.5-1.2-2.4-3.2-2.4-7.1C61.7,22.6,62.9,20.3,64.5,19.1 M92.2,24.4c1.3,0,1.7-0.2,2.2-1.3l1.8-3.7c0.6-1.3,1.2-1.9,3.1-1.9h1.7
	c0.4,0,0.7,0.2,0.5,0.6l-3,6.1c-0.5,1.1-0.7,1.5-0.7,2.1c0,0.6,0.3,1.4,0.9,2.6l2.8,5.9c0.2,0.4-0.1,0.7-0.4,0.7h-1.8
	c-2.1,0-2.6-0.6-3.2-1.9l-1.8-4.1c-0.5-1.1-0.8-1.4-2.1-1.4H91c-1.1,0-1.6,0.2-2,1.1l-2.1,4.5c-0.6,1.3-1.3,1.8-3.1,1.8h-1.8
	c-0.4,0-0.6-0.3-0.4-0.7l3.2-6.5c0.5-1.1,0.7-1.7,0.7-2.2c0-0.6-0.2-1.3-0.7-2.3l-2.7-5.7c-0.2-0.4,0-0.6,0.5-0.6h1.8
	c2,0,2.5,0.5,3.1,1.9l1.6,3.6c0.5,1.3,0.9,1.5,2,1.5H92.2z M117.6,21.8c-0.7-0.5-1.7-0.8-3.6-0.8c-1.6,0-2.7,0.1-3.3,0.2
	c-0.5,0.1-0.7,0.3-0.7,1.1V31c0,0.7,0.2,1,0.8,1c0.8,0.1,1.7,0.2,2.9,0.2c2.2,0,3.3-0.3,3.9-1c0.8-0.7,1.4-2.3,1.4-4.8
	C118.9,23.7,118.2,22.3,117.6,21.8 M113.6,17.5c4.5,0,6.4,0.4,7.7,1.5c1.2,1.1,2.2,3.4,2.2,7.3c0,4.5-1.2,6.7-2.6,7.9
	c-1.2,1.1-3.4,1.7-6.7,1.7c-1.3,0-2.4,0-3.4-0.1c-0.4,0-0.7,0-0.7,0.7v6c0,0.8-0.2,1-0.8,1H106c-0.4,0-0.6-0.1-0.6-0.5V19
	c0-0.7,0.2-0.9,0.8-1C108,17.7,111.2,17.5,113.6,17.5 M127.4,18.6c0-0.4,0.2-0.6,0.5-0.6c1.8-0.3,4.2-0.5,6-0.5c2,0,3.6,0.1,4.3,0.5
	c0.7,0.4,1.1,1.5,1.1,3c0,0.3-0.2,0.5-0.5,0.5c-0.8-0.1-2.1-0.2-3.1-0.2c-1,0-2.2,0-3.2,0.1c-0.9,0.1-1,0.2-1,1.4v12.1
	c0,0.4-0.2,0.5-0.6,0.5h-3.2c-0.3,0-0.5-0.1-0.5-0.5V18.6z M147.3,21.6c-0.9,0.6-1.1,1.9-1.1,2.5c0,0.4,0.2,0.5,1,0.5h5.5
	c0.9,0,1.5,0.1,1.6-0.1c0.1-0.1,0.2-0.3,0.2-0.5c0-1-0.3-2.2-1-2.6c-0.5-0.4-1.4-0.6-3-0.6C148.9,20.8,148,21.1,147.3,21.6
	 M144.1,19.1c1.3-1,3.4-1.6,6.7-1.6c3.2,0,5,0.5,6.2,1.4c1.2,1,2.1,3,2.1,7.9c0,0.6-0.1,1-0.7,1h-11.3c-1,0-1.1,0.1-1.1,0.6
	c0,1.1,0.3,1.9,1.1,2.5c0.7,0.7,2.4,1,4.8,1c2.4,0,4.7-0.3,5.9-0.5c0.3-0.1,0.6,0.2,0.6,0.5c0,0.9-0.8,2.3-1.7,2.8
	c-0.7,0.4-2.9,0.8-6,0.8c-3.4,0-5.8-0.6-7.1-1.7c-1.5-1.2-2.4-3.2-2.4-7.1C141.3,22.6,142.5,20.3,144.1,19.1 M177.3,18
	c0.8,0.5,1.3,1.8,1.3,2.7c0,0.3-0.4,0.5-0.6,0.5c-1.4-0.1-3.4-0.4-5.4-0.4c-2.1,0-3.5,0.2-4,0.5c-0.4,0.3-0.7,0.9-0.7,1.5
	c0,0.4,0.1,0.8,0.4,0.9c0.8,0.5,8.3,1.7,9.6,2.4c0.7,0.4,1.2,1.3,1.2,3c0,2.5-0.8,4.1-1.9,4.9c-1.1,0.8-3.1,1.4-7,1.4
	c-3.3,0-4.9-0.3-5.7-0.7c-0.7-0.5-1.4-2-1.4-2.7c0-0.4,0.3-0.6,0.6-0.6c1.6,0.2,3.7,0.5,6,0.5c1.9,0,3.2-0.2,3.7-0.5
	c0.5-0.3,0.6-0.8,0.6-1.4c0-0.5-0.1-0.7-0.4-0.8c-1-0.8-8.4-1.9-9.6-2.6c-0.6-0.3-1-1.6-1-2.5c0-2.9,0.9-4.4,2-5.3
	c1.2-0.8,3.3-1.3,6.8-1.3C174.8,17.5,176.6,17.6,177.3,18 M195.2,18c0.8,0.5,1.3,1.8,1.3,2.7c0,0.3-0.4,0.5-0.6,0.5
	c-1.4-0.1-3.4-0.4-5.4-0.4c-2.1,0-3.5,0.2-4,0.5c-0.4,0.3-0.7,0.9-0.7,1.5c0,0.4,0.1,0.8,0.4,0.9c0.8,0.5,8.3,1.7,9.6,2.4
	c0.7,0.4,1.2,1.3,1.2,3c0,2.5-0.8,4.1-1.9,4.9c-1.1,0.8-3.1,1.4-7,1.4c-3.3,0-4.9-0.3-5.7-0.7c-0.7-0.5-1.4-2-1.4-2.7
	c0-0.4,0.3-0.6,0.6-0.6c1.6,0.2,3.7,0.5,6,0.5c1.9,0,3.2-0.2,3.7-0.5c0.5-0.3,0.6-0.8,0.6-1.4c0-0.5-0.1-0.7-0.4-0.8
	c-1-0.8-8.4-1.9-9.6-2.6c-0.6-0.3-1-1.6-1-2.5c0-2.9,0.9-4.4,2-5.3c1.2-0.8,3.3-1.3,6.8-1.3C192.7,17.5,194.5,17.6,195.2,18"/>
</svg>
