<?xml version="1.0" encoding="utf-8"?>
<!-- Generator: Adobe Illustrator 22.0.1, SVG Export Plug-In . SVG Version: 6.00 Build 0)  -->
<svg version="1.1" id="american-express" xmlns="http://www.w3.org/2000/svg" xmlns:xlink="http://www.w3.org/1999/xlink" x="0px"
	 y="0px" viewBox="0 0 50 30" style="enable-background:new 0 0 50 30;" xml:space="preserve">
<style type="text/css">
	.st0{fill:url(#Shape_3_);}
	.st1{fill:#FFFFFF;}
</style>
<g id="american-express_1_">
	
		<radialGradient id="Shape_3_" cx="-758.6579" cy="158.9987" r="1.5548" gradientTransform="matrix(30 0 0 -30 22768.5098 4775.2002)" gradientUnits="userSpaceOnUse">
		<stop  offset="0" style="stop-color:#9DD5F6"/>
		<stop  offset="7.110000e-02" style="stop-color:#98D3F5"/>
		<stop  offset="0.1575" style="stop-color:#89CEF3"/>
		<stop  offset="0.2516" style="stop-color:#70C6EF"/>
		<stop  offset="0.3514" style="stop-color:#4EBBEA"/>
		<stop  offset="0.4546" style="stop-color:#23ADE3"/>
		<stop  offset="0.5" style="stop-color:#0DA6E0"/>
		<stop  offset="1" style="stop-color:#2E77BC"/>
	</radialGradient>
	<path id="Shape" class="st0" d="M49.7,0H0v30h49.7v-9.9c0.2-0.2,0.3-0.4,0.3-0.7c0-0.3-0.1-0.5-0.3-0.7"/>
	<path id="Shape_1_" class="st1" d="M4.4,11.4L3.5,9.1l-0.9,2.3H4.4z M25.3,10.5c-0.2,0.1-0.4,0.1-0.7,0.1H23V9.3h1.7
		c0.2,0,0.5,0,0.7,0.1c0.2,0.1,0.3,0.3,0.3,0.5C25.6,10.2,25.5,10.4,25.3,10.5z M37.3,11.4l-1-2.3l-1,2.3H37.3z M15,13.9h-1.4l0-4.5
		l-2,4.5h-1.2l-2-4.5v4.5H5.5l-0.5-1.3H2.1l-0.5,1.3H0l2.5-5.7h2.1l2.4,5.4V8.1h2.3L11,12l1.7-3.9H15L15,13.9L15,13.9z M20.6,13.9
		H16V8.1h4.6v1.2h-3.2v1h3.2v1.2h-3.2v1.1h3.2V13.9z M27.1,9.7c0,0.9-0.6,1.4-1,1.5c0.3,0.1,0.6,0.3,0.7,0.5
		c0.2,0.3,0.2,0.5,0.2,1.1v1.1h-1.4l0-0.7c0-0.3,0-0.8-0.2-1.1c-0.2-0.2-0.5-0.2-1-0.2H23v2.1h-1.4V8.1h3.2c0.7,0,1.2,0,1.7,0.3
		C26.9,8.7,27.1,9,27.1,9.7z M29.4,13.9H28V8.1h1.4V13.9z M45.8,13.9h-2l-2.6-4.3v4.3h-2.8l-0.5-1.3h-2.9l-0.5,1.3h-1.6
		c-0.7,0-1.5-0.1-2-0.6C30.3,12.7,30,12.1,30,11c0-0.9,0.2-1.6,0.7-2.2c0.4-0.5,1.1-0.7,2.1-0.7h1.3v1.2h-1.3
		c-0.5,0-0.8,0.1-1.1,0.3c-0.2,0.2-0.4,0.7-0.4,1.3c0,0.6,0.1,1.1,0.4,1.3c0.2,0.2,0.6,0.3,1,0.3h0.6l2-4.5h2.1l2.3,5.4V8.1h2.1
		l2.4,4v-4h1.4V13.9z M0,15h2.4l0.5-1.3h1.2L4.6,15h4.7v-1l0.4,1h2.4l0.4-1v1h11.6l0-2.1h0.2c0.2,0,0.2,0,0.2,0.3V15h6v-0.5
		c0.5,0.3,1.2,0.5,2.2,0.5h2.5l0.5-1.3H37l0.5,1.3h4.9v-1.2l0.7,1.2H47V7h-3.8v0.9L42.6,7h-3.9v0.9L38.2,7h-5.3
		c-0.9,0-1.7,0.1-2.3,0.5V7h-3.7v0.5c-0.4-0.4-1-0.5-1.6-0.5H11.8l-0.9,2.1L10,7H5.8v0.9L5.3,7H1.7L0,10.8L0,15L0,15z"/>
	<path id="Shape_2_" class="st1" d="M50,19.4h-2.6c-0.3,0-0.4,0-0.6,0.1c-0.1,0.1-0.2,0.2-0.2,0.4c0,0.2,0.1,0.4,0.3,0.4
		c0.1,0.1,0.3,0.1,0.5,0.1l0.8,0c0.8,0,1.3,0.1,1.6,0.5c0.1,0,0.1,0.1,0.1,0.1V19.4z M50,23.1c-0.3,0.5-1,0.7-1.9,0.7h-2.7v-1.2h2.7
		c0.3,0,0.5,0,0.6-0.1c0.1-0.1,0.2-0.2,0.2-0.4c0-0.2-0.1-0.3-0.2-0.4c-0.1-0.1-0.3-0.1-0.5-0.1c-1.3,0-3,0-3-1.8
		c0-0.8,0.5-1.7,2-1.7H50l0-1.1h-2.6c-0.8,0-1.4,0.2-1.8,0.5V17h-3.8c-0.6,0-1.3,0.1-1.7,0.5V17h-6.9v0.5c-0.5-0.4-1.5-0.5-1.9-0.5
		h-4.5v0.5c-0.4-0.4-1.4-0.5-2-0.5h-5.1l-1.2,1.2L17.6,17H10v8h7.4l1.2-1.2l1.1,1.2l4.6,0v-1.9h0.4c0.6,0,1.3,0,2-0.3V25h3.8v-2.1
		h0.2c0.2,0,0.3,0,0.3,0.2V25h11.5c0.7,0,1.5-0.2,1.9-0.5V25h3.6c0.8,0,1.5-0.1,2.1-0.4V23.1z M44.4,20.8c0.3,0.3,0.4,0.6,0.4,1.2
		c0,1.2-0.8,1.8-2.2,1.8h-2.7v-1.2h2.7c0.3,0,0.5,0,0.6-0.1c0.1-0.1,0.2-0.2,0.2-0.4c0-0.2-0.1-0.3-0.2-0.4
		c-0.1-0.1-0.3-0.1-0.5-0.1c-1.3,0-3,0-3-1.8c0-0.8,0.5-1.7,2-1.7h2.8v1.2H42c-0.3,0-0.4,0-0.6,0.1c-0.2,0.1-0.2,0.2-0.2,0.4
		c0,0.2,0.1,0.4,0.3,0.4c0.1,0.1,0.3,0.1,0.5,0.1l0.8,0C43.6,20.4,44.1,20.5,44.4,20.8z M31.7,20.5c-0.2,0.1-0.4,0.1-0.7,0.1h-1.7
		v-1.3h1.7c0.2,0,0.5,0,0.7,0.1c0.2,0.1,0.3,0.3,0.3,0.5C32,20.2,31.9,20.4,31.7,20.5z M32.6,21.2c0.3,0.1,0.6,0.3,0.7,0.5
		c0.2,0.3,0.2,0.5,0.2,1v1.1h-1.4v-0.7c0-0.3,0-0.9-0.2-1.1c-0.2-0.2-0.5-0.3-1-0.3h-1.5v2.1h-1.4v-5.7h3.2c0.7,0,1.2,0,1.7,0.3
		c0.4,0.3,0.7,0.6,0.7,1.3C33.6,20.6,33,21.1,32.6,21.2z M34.4,18.1H39v1.2h-3.3v1H39v1.2h-3.2v1.1l3.3,0v1.2h-4.7V18.1z M24.9,20.8
		h-1.8v-1.5h1.8c0.5,0,0.9,0.2,0.9,0.7C25.8,20.5,25.4,20.8,24.9,20.8z M21.7,23.3L19.5,21l2.2-2.3V23.3z M16.1,22.7h-3.5v-1.1h3.1
		v-1.2h-3.1v-1h3.5l1.5,1.7L16.1,22.7z M27.3,20c0,1.6-1.2,1.9-2.4,1.9h-1.8v1.9h-2.7L18.6,22l-1.8,1.9h-5.6v-5.7h5.6l1.7,1.9
		l1.8-1.9h4.5C26,18.1,27.3,18.4,27.3,20z"/>
</g>
</svg>
