<?xml version="1.0" encoding="utf-8"?>
<!-- Generator: Adobe Illustrator 22.0.1, SVG Export Plug-In . SVG Version: 6.00 Build 0)  -->
<svg version="1.1" id="JCB_1_" xmlns="http://www.w3.org/2000/svg" xmlns:xlink="http://www.w3.org/1999/xlink" x="0px" y="0px"
	 viewBox="0 0 39 30" style="enable-background:new 0 0 39 30;" xml:space="preserve">
<style type="text/css">
	.st0{fill:#FFFFFF;}
	.st1{fill:url(#Shape_6_);}
	.st2{fill:url(#Shape_7_);}
	.st3{fill:url(#Shape_8_);}
	.st4{fill:url(#Shape_9_);}
	.st5{fill:url(#Shape_10_);}
</style>
<g id="JCB">
	<path id="Shape" class="st0" d="M39,24c0,3.3-2.7,6-6.1,6H0V6c0-3.3,2.7-6,6.1-6H39V24z"/>
	
		<linearGradient id="Shape_6_" gradientUnits="userSpaceOnUse" x1="-593.8253" y1="96.14" x2="-590.9261" y2="96.14" gradientTransform="matrix(4 0 0 -2 2401 208.28)">
		<stop  offset="0" style="stop-color:#007940"/>
		<stop  offset="0.2285" style="stop-color:#00873F"/>
		<stop  offset="0.7433" style="stop-color:#40A737"/>
		<stop  offset="1" style="stop-color:#5CB531"/>
	</linearGradient>
	<path id="Shape_1_" class="st1" d="M28,17h2.7c0.1,0,0.3,0,0.3,0c0.5-0.1,1-0.5,1-1c0-0.5-0.4-0.9-1-1c-0.1,0-0.2,0-0.3,0H28V17z"
		/>
	
		<linearGradient id="Shape_7_" gradientUnits="userSpaceOnUse" x1="-719.0891" y1="157.9862" x2="-718.0891" y2="157.9862" gradientTransform="matrix(11 0 0 -26 7936 4122.6401)">
		<stop  offset="0" style="stop-color:#007940"/>
		<stop  offset="0.2285" style="stop-color:#00873F"/>
		<stop  offset="0.7433" style="stop-color:#40A737"/>
		<stop  offset="1" style="stop-color:#5CB531"/>
	</linearGradient>
	<path id="Shape_2_" class="st2" d="M30.5,2C28,2,26,3.9,26,6.3v4.5h6.3c0.1,0,0.3,0,0.4,0c1.4,0.1,2.5,0.8,2.5,2c0,1-0.7,1.8-2,2v0
		c1.4,0.1,2.5,0.9,2.5,2.1c0,1.3-1.2,2.2-2.8,2.2H26V28h6.5c2.4,0,4.5-1.9,4.5-4.3V2H30.5z"/>
	
		<linearGradient id="Shape_8_" gradientUnits="userSpaceOnUse" x1="-527.9614" y1="96.14" x2="-524.7966" y2="96.14" gradientTransform="matrix(3 0 0 -2 1610 205.28)">
		<stop  offset="0" style="stop-color:#007940"/>
		<stop  offset="0.2285" style="stop-color:#00873F"/>
		<stop  offset="0.7433" style="stop-color:#40A737"/>
		<stop  offset="1" style="stop-color:#5CB531"/>
	</linearGradient>
	<path id="Shape_3_" class="st3" d="M31,13c0-0.5-0.4-0.9-0.8-1c0,0-0.1,0-0.2,0h-2v2h2c0.1,0,0.2,0,0.2,0C30.6,13.9,31,13.5,31,13z
		"/>
	
		<linearGradient id="Shape_9_" gradientUnits="userSpaceOnUse" x1="-719.0892" y1="157.9862" x2="-718.0728" y2="157.9862" gradientTransform="matrix(11 0 0 -26 7912 4122.6401)">
		<stop  offset="0" style="stop-color:#1F286F"/>
		<stop  offset="0.4751" style="stop-color:#004E94"/>
		<stop  offset="0.8261" style="stop-color:#0066B1"/>
		<stop  offset="1" style="stop-color:#006FBC"/>
	</linearGradient>
	<path id="Shape_4_" class="st4" d="M6.5,2C4,2,2,3.9,2,6.3v10.7c1.2,0.6,2.5,1,3.8,1c1.5,0,2.4-0.9,2.4-2.1v-5.1h3.8v5
		c0,2-1.2,3.6-5.5,3.6C4,19.4,2,18.9,2,18.9V28h6.5c2.4,0,4.5-1.9,4.5-4.3V2H6.5z"/>
	
		<linearGradient id="Shape_10_" gradientUnits="userSpaceOnUse" x1="-719.0967" y1="157.9862" x2="-718.1096" y2="157.9862" gradientTransform="matrix(11 0 0 -26 7924 4122.6401)">
		<stop  offset="0" style="stop-color:#6C2C2F"/>
		<stop  offset="0.1735" style="stop-color:#882730"/>
		<stop  offset="0.5731" style="stop-color:#BE1833"/>
		<stop  offset="0.8585" style="stop-color:#DC0436"/>
		<stop  offset="1" style="stop-color:#E60039"/>
	</linearGradient>
	<path id="Shape_5_" class="st5" d="M18.5,2C16,2,14,3.9,14,6.3V12c1.1-0.9,3.1-1.5,6.2-1.4c1.7,0.1,3.5,0.5,3.5,0.5V13
		c-0.9-0.5-2-0.9-3.4-1c-2.4-0.2-3.8,1-3.8,3c0,2,1.4,3.2,3.8,3c1.4-0.1,2.5-0.5,3.4-1v1.8c0,0-1.8,0.5-3.5,0.5
		c-3.2,0.1-5.1-0.5-6.2-1.4v10h6.5c2.4,0,4.5-1.9,4.5-4.3V2H18.5z"/>
</g>
</svg>
