<?xml version="1.0" encoding="utf-8"?>
<!-- Generator: Adobe Illustrator 22.0.1, SVG Export Plug-In . SVG Version: 6.00 Build 0)  -->
<svg version="1.1" id="mastercard" xmlns="http://www.w3.org/2000/svg" xmlns:xlink="http://www.w3.org/1999/xlink" x="0px" y="0px"
	 viewBox="0 0 40 30" style="enable-background:new 0 0 40 30;" xml:space="preserve">
<style type="text/css">
	.st0{fill:#FF5F00;}
	.st1{fill:#EB001B;}
	.st2{fill:#F79E1B;}
</style>
<g id="mastercard_1_">
	<g id="g15" transform="translate(2.070767, 25.109777)">
		<path id="XMLID_1775_" d="M5.4,4.6v-2c0-0.7-0.5-1.2-1.3-1.2C3.7,1.4,3.3,1.5,2.9,2c-0.2-0.4-0.5-0.6-1-0.6C1.6,1.4,1.2,1.5,1,1.9
			V1.5H0.2v3.1h0.7V2.9c0-0.6,0.3-0.8,0.8-0.8s0.7,0.3,0.7,0.8v1.7h0.7V2.9c0-0.6,0.3-0.8,0.8-0.8s0.7,0.3,0.7,0.8v1.7
			C4.6,4.6,5.4,4.6,5.4,4.6z M15.9,1.5h-1.2v-1H14v0.9h-0.6V2H14v1.4c0,0.7,0.3,1.1,1.1,1.1c0.3,0,0.6-0.1,0.9-0.2l-0.2-0.6
			C15.6,4,15.4,4,15.2,4c-0.3,0-0.5-0.2-0.5-0.5V2.1h1.2V1.5z M21.9,1.4c-0.4,0-0.7,0.2-0.8,0.5V1.5h-0.7v3.1h0.7V2.8
			c0-0.5,0.2-0.8,0.7-0.8c0.1,0,0.3,0,0.4,0.1l0.2-0.7C22.3,1.4,22.1,1.4,21.9,1.4z M12.8,1.7c-0.3-0.2-0.8-0.3-1.3-0.3
			c-0.8,0-1.4,0.4-1.4,1c0,0.5,0.4,0.8,1.1,0.9h0.3c0.4,0.1,0.6,0.2,0.6,0.3c0,0.2-0.3,0.4-0.7,0.4c-0.5,0-0.8-0.2-1.1-0.3L10,4.3
			c0.4,0.3,0.9,0.4,1.4,0.4c0.9,0,1.5-0.4,1.5-1s-0.4-0.8-1.1-0.9h-0.3c-0.3,0-0.5-0.1-0.5-0.3s0.2-0.4,0.6-0.4c0.4,0,0.8,0.2,1,0.3
			L12.8,1.7z M31.7,1.4c-0.4,0-0.7,0.2-0.8,0.5V1.5h-0.7v3.1h0.7V2.8c0-0.5,0.2-0.8,0.7-0.8c0.1,0,0.3,0,0.4,0.1l0.2-0.7
			C32.1,1.4,31.9,1.4,31.7,1.4z M22.7,3c0,0.9,0.7,1.6,1.7,1.6c0.5,0,0.8-0.1,1.2-0.4l-0.3-0.6c-0.4,0.3-0.6,0.4-1,0.4
			c-0.6,0-1-0.4-1-1s0.4-1,1-1c0.3,0,0.6,0.1,0.8,0.3l0.3-0.6c-0.3-0.3-0.7-0.4-1.2-0.4C23.3,1.4,22.7,2.1,22.7,3z M29.2,3V1.5h-0.7
			v0.4c-0.2-0.3-0.6-0.5-1-0.5c-0.9,0-1.6,0.7-1.6,1.6s0.7,1.6,1.6,1.6c0.5,0,0.8-0.2,1-0.5v0.4h0.7V3z M26.6,3c0-0.6,0.4-1,1-1
			s1,0.4,1,1s-0.4,1-1,1S26.6,3.6,26.6,3z M18.1,1.4c-0.9,0-1.6,0.7-1.6,1.6s0.7,1.6,1.7,1.6c0.5,0,0.9-0.1,1.3-0.4l-0.3-0.5
			C18.9,3.9,18.6,4,18.3,4c-0.4,0-0.9-0.2-1-0.7h2.4c0-0.1,0-0.2,0-0.3C19.6,2.1,19,1.4,18.1,1.4z M18.1,2c0.4,0,0.7,0.3,0.8,0.7
			h-1.7C17.3,2.3,17.6,2,18.1,2z M35.8,3V0.2H35v1.6c-0.2-0.3-0.6-0.5-1-0.5c-0.9,0-1.6,0.7-1.6,1.6s0.7,1.6,1.6,1.6
			c0.5,0,0.8-0.2,1-0.5v0.4h0.7L35.8,3L35.8,3z M33.1,3c0-0.6,0.4-1,1-1s1,0.4,1,1s-0.4,1-1,1S33.1,3.6,33.1,3z M9.4,3V1.5H8.7v0.4
			c-0.2-0.3-0.6-0.5-1-0.5C6.7,1.4,6,2.1,6,3s0.7,1.6,1.6,1.6c0.5,0,0.8-0.2,1-0.5v0.4h0.7L9.4,3L9.4,3z M6.7,3c0-0.6,0.4-1,1-1
			s1,0.4,1,1s-0.4,1-1,1S6.7,3.6,6.7,3z"/>
	</g>
	<g id="XMLID_328_" transform="translate(0.039107, 0.010426)">
		<rect id="rect19" x="14.6" y="2.8" class="st0" width="10.7" height="18.4"/>
		<path id="XMLID_330_" class="st1" d="M15.3,12c0-3.7,1.8-7.1,4.6-9.2c-2.1-1.6-4.7-2.5-7.5-2.5C5.7,0.3,0.2,5.5,0.2,12
			s5.5,11.7,12.2,11.7c2.8,0,5.5-0.9,7.5-2.5C17.1,19.1,15.3,15.8,15.3,12z"/>
		<path id="path22" class="st2" d="M39.7,12c0,6.5-5.5,11.7-12.2,11.7c-2.8,0-5.5-0.9-7.5-2.5c2.8-2.2,4.6-5.5,4.6-9.2
			S22.8,5,20,2.8c2.1-1.6,4.7-2.5,7.5-2.5C34.2,0.3,39.7,5.6,39.7,12z"/>
	</g>
</g>
</svg>
