<?xml version="1.0" encoding="UTF-8"?>
<svg width="49px" height="30px" viewBox="0 0 49 30" version="1.1" xmlns="http://www.w3.org/2000/svg" xmlns:xlink="http://www.w3.org/1999/xlink">
    <!-- Generator: Sketch 49 (51002) - http://www.bohemiancoding.com/sketch -->
    <title>Icon/payment/visa</title>
    <desc>Created with Sketch.</desc>
    <defs>
        <path d="M31.9699344,0 C28.0889267,0.0214842345 25.3623935,2.11888263 25.3403854,5.1147824 C25.3145829,7.34396355 27.3063124,8.58602086 28.8072243,9.3268433 C30.3489269,10.0853135 30.8663061,10.5719698 30.8606143,11.2498741 C30.8488514,12.2885985 29.6298704,12.7462894 28.4905738,12.764129 C26.4999826,12.7955881 25.3447491,12.2203093 24.4238255,11.7865963 L23.7072355,15.1776526 C24.6315741,15.6069536 26.3392858,15.9812013 28.1099861,16 C32.2698891,16 34.9901614,13.9231267 35.0032524,10.7049035 C35.0207071,6.62117252 29.417948,6.39577988 29.4562723,4.57096271 C29.4689839,4.01620909 29.9912959,3.42615993 31.1357151,3.27481117 C31.7024227,3.20038365 33.267082,3.14245294 35.0391104,3.96729409 L35.7348307,0.685769092 C34.7934169,0.340486752 33.5869578,0.00824841146 32.087374,0 L31.9699344,0 Z M42.4243328,0.282939695 C41.6639163,0.282939695 41.0230264,0.729696679 40.7390086,1.41776765 L34.7974012,15.7581105 L38.9546481,15.7581105 L39.7805195,13.4458698 L44.8594489,13.4458698 L45.3383139,15.7581105 L49,15.7581105 L45.8035188,0.282939695 L42.4243328,0.282939695 Z M43.0045108,4.46411701 L44.2039501,10.2746433 L40.9200059,10.2746433 L43.0045108,4.46411701 Z M20.3031955,0.282939695 L17.0277889,15.7581105 L20.9875324,15.7581105 L24.261611,0.282939695 L20.3031955,0.282939695 Z M14.445067,0.282939695 L10.3240575,10.8153938 L8.65694683,1.86030452 C8.46172014,0.860328498 7.68897158,0.282939695 6.83084691,0.282939695 L0.0933445361,0.282939695 L0,0.731614914 C1.38271337,1.03584702 2.95439251,1.52595612 3.90605144,2.0484834 C4.48888562,2.36844503 4.65508443,2.64754826 4.84670634,3.4079367 L8.0037248,15.7581105 L12.1888612,15.7581105 L18.6038317,0.282939695 L14.445067,0.282939695 Z" id="path-1"></path>
        <linearGradient x1="0%" y1="50%" x2="100%" y2="50%" id="linearGradient-3">
            <stop stop-color="#241F5D" offset="0%"></stop>
            <stop stop-color="#034EA1" offset="100%"></stop>
        </linearGradient>
    </defs>
    <g id="Icon/payment/visa" stroke="none" stroke-width="1" fill="none" fill-rule="evenodd">
        <g id="Page-1" transform="translate(0.000000, 7.000000)">
            <mask id="mask-2" fill="white">
                <use xlink:href="#path-1"></use>
            </mask>
            <g id="Clip-2"></g>
            <polygon fill="url(#linearGradient-3)" mask="url(#mask-2)" points="0 16 49 16 49 0.000134275338 0 0.000134275338"></polygon>
        </g>
    </g>
</svg>